<?xml version="1.0" standalone="no"?>
<!DOCTYPE svg PUBLIC "-//W3C//DTD SVG 20010904//EN"
 "http://www.w3.org/TR/2001/REC-SVG-20010904/DTD/svg10.dtd">
<svg version="1.0" xmlns="http://www.w3.org/2000/svg"
 width="1700.000000pt" height="1700.000000pt" viewBox="0 0 1700.000000 1700.000000"
 preserveAspectRatio="xMidYMid meet">

<g transform="translate(0.000000,1700.000000) scale(0.100000,-0.100000)"
fill="#000000" stroke="none">
<path d="M12740 14827 c3 -4 41 -7 84 -8 76 -2 115 -17 101 -40 -9 -13 9 -11
23 3 9 9 15 9 24 0 9 -9 9 -12 -2 -12 -10 0 -11 -3 -3 -11 6 -6 23 -11 37 -11
14 0 26 -4 26 -9 0 -5 -7 -9 -15 -9 -8 0 -15 -4 -15 -10 0 -5 7 -10 16 -10 10
0 14 -6 11 -14 -4 -10 -1 -13 9 -9 10 4 12 0 8 -11 -3 -9 -1 -16 5 -16 6 0 11
-5 11 -11 0 -6 -7 -8 -16 -5 -13 5 -15 2 -10 -16 3 -13 6 -26 6 -30 0 -15 20
-8 20 7 0 8 5 15 10 15 11 0 11 5 11 -125 0 -52 0 -100 -1 -106 0 -5 -5 -7
-11 -3 -6 3 -9 17 -6 30 2 13 0 24 -5 24 -4 0 -6 11 -2 24 3 15 1 25 -8 28
-16 7 -19 -43 -3 -54 6 -5 6 -11 -3 -20 -14 -14 -16 -58 -3 -58 5 0 5 -16 -1
-37 -5 -21 -12 -50 -15 -65 -3 -16 -9 -28 -14 -28 -5 0 -9 -8 -9 -17 0 -19
-41 -43 -72 -43 -10 0 -18 -7 -18 -15 0 -8 9 -15 19 -15 17 0 18 -4 10 -35 -6
-19 -7 -40 -4 -45 3 -5 -3 -18 -15 -30 -21 -21 -27 -50 -10 -50 6 0 10 -4 10
-9 0 -4 -11 -6 -25 -3 -20 3 -25 0 -25 -17 0 -19 -6 -21 -53 -21 -32 0 -67 -7
-90 -19 -29 -15 -37 -16 -37 -5 0 8 -4 14 -10 14 -5 0 -10 -7 -10 -15 0 -14
-17 -20 -48 -16 -7 1 -15 -6 -19 -15 -6 -16 -7 -16 -15 2 -4 11 -5 4 -2 -18 6
-37 -6 -52 -21 -27 -4 6 -13 8 -21 5 -8 -3 -14 -2 -14 3 0 5 -9 11 -20 14 -16
4 -20 0 -20 -18 0 -13 6 -26 13 -28 6 -3 2 -6 -10 -6 -12 -1 -24 -7 -27 -13
-5 -10 -7 -10 -12 0 -3 6 -12 12 -20 12 -9 0 -14 7 -12 18 2 12 -5 18 -24 20
-25 3 -28 0 -28 -27 0 -21 5 -31 16 -31 8 0 13 -4 10 -9 -3 -5 -14 -7 -25 -4
-13 3 -20 -2 -25 -21 -6 -23 -11 -26 -50 -26 -27 0 -48 6 -56 15 -22 27 -30
16 -30 -40 0 -41 -4 -55 -14 -55 -8 0 -16 5 -18 11 -2 6 -28 11 -59 12 -46 2
-55 5 -56 21 -2 25 -9 30 -29 22 -10 -4 -14 -13 -11 -25 3 -14 -2 -20 -19 -24
-18 -3 -25 2 -34 24 -14 34 -39 45 -58 25 -20 -20 -8 -46 23 -46 14 0 25 -4
25 -10 0 -5 -4 -10 -10 -10 -5 0 -9 -6 -7 -12 4 -23 -45 -14 -61 10 -14 21
-13 22 4 16 16 -5 15 -2 -4 15 -19 17 -34 20 -88 17 -80 -4 -97 -17 -89 -66 7
-43 -30 -125 -57 -125 -9 0 -20 -4 -24 -8 -4 -4 -16 -7 -26 -7 -10 0 -18 -5
-18 -11 0 -6 9 -8 20 -4 11 3 20 2 20 -4 0 -15 -20 -24 -50 -23 -29 1 -40 -17
-40 -65 0 -13 -4 -23 -9 -23 -16 0 -31 27 -25 44 8 20 -3 21 -21 2 -10 -10
-11 -16 -2 -25 8 -8 6 -11 -10 -11 -13 0 -23 8 -26 21 -5 20 -7 20 -22 5 -9
-9 -23 -16 -32 -16 -9 0 -13 -6 -9 -15 3 -9 0 -15 -9 -15 -9 0 -12 8 -9 24 3
20 1 23 -15 19 -21 -5 -37 12 -21 22 5 3 10 12 10 20 0 17 -29 13 -41 -6 -7
-12 -9 -12 -9 1 0 12 -2 13 -9 1 -6 -9 -21 -12 -45 -9 -20 2 -37 -1 -40 -7 -2
-6 -21 -9 -46 -7 -35 4 -41 7 -37 23 6 22 -11 26 -19 4 -8 -19 -24 -20 -24 -1
0 18 -31 30 -41 15 -5 -8 -67 -11 -220 -10 -118 0 -230 -3 -249 -7 -21 -5 60
-8 200 -8 257 1 333 -9 530 -64 254 -72 408 -148 605 -300 97 -75 246 -207
299 -265 53 -58 135 -168 193 -258 257 -403 362 -856 308 -1322 -44 -371 -180
-701 -419 -1010 -75 -97 -83 -111 -69 -122 9 -7 19 -10 22 -7 3 3 -1 9 -8 13
-11 7 -10 13 4 34 14 22 19 24 36 14 10 -6 19 -15 19 -20 0 -4 4 -6 10 -2 5 3
6 13 3 22 -4 10 1 21 13 30 15 11 17 17 6 33 -19 31 -14 37 9 10 l20 -25 -7
25 -6 25 20 -23 c16 -19 22 -20 33 -10 8 7 20 13 27 14 6 1 22 2 33 3 18 1 19
4 9 16 -15 18 -6 45 14 45 23 0 66 48 66 73 0 19 6 22 45 24 35 2 45 -1 45
-13 0 -13 2 -13 14 -2 7 8 17 24 20 36 8 23 13 25 60 22 21 -1 26 2 21 12 -3
7 0 5 9 -6 16 -19 36 -14 36 10 0 9 11 14 35 14 19 0 35 -4 35 -10 0 -5 9 -10
20 -10 11 0 20 7 20 15 0 8 -6 12 -14 9 -10 -4 -16 5 -21 25 -4 17 -11 31 -16
31 -15 0 -10 46 9 79 9 18 26 31 37 32 20 0 20 1 0 8 -17 7 -16 9 10 15 18 5
31 3 33 -3 2 -6 24 -11 48 -11 37 0 44 3 44 20 0 14 -5 18 -17 13 -15 -5 -15
-3 1 9 16 13 23 13 45 2 14 -8 38 -14 53 -14 15 0 30 -4 33 -10 3 -5 26 -10
51 -10 40 0 44 -2 44 -25 0 -24 15 -35 22 -16 5 13 68 25 68 12 0 -6 9 -11 20
-11 11 0 20 5 20 10 0 20 29 9 32 -12 2 -17 13 -24 43 -30 21 -5 43 -14 47
-21 5 -8 8 -6 8 6 0 16 5 17 33 12 17 -4 34 -11 37 -15 3 -5 21 -10 40 -12 34
-3 35 -5 38 -48 2 -24 8 -47 13 -50 5 -4 10 -19 11 -36 1 -16 10 -40 20 -53
14 -18 15 -27 7 -37 -9 -11 -7 -20 5 -39 9 -14 12 -25 6 -25 -5 0 -10 -15 -10
-34 0 -34 21 -63 38 -52 6 3 15 -1 22 -9 7 -9 21 -13 30 -10 15 5 18 -8 28
-107 l10 -113 -3 175 c-8 342 -83 863 -181 1255 -41 164 -150 495 -224 680
-56 142 -196 431 -273 565 -93 162 -293 451 -401 579 l-37 44 26 31 c43 53
133 202 184 304 160 319 242 615 245 882 1 99 -2 125 -24 184 -29 80 -80 143
-148 182 -40 23 -62 28 -142 32 -52 2 -93 2 -90 -1z m321 -119 c28 -32 23 -47
-6 -16 -14 15 -25 30 -25 33 0 11 13 4 31 -17z m49 -105 c-1 -24 -2 -26 -11
-10 -5 9 -7 22 -4 27 10 17 15 11 15 -17z m3 -63 c3 -11 1 -18 -4 -14 -5 3 -9
12 -9 20 0 20 7 17 13 -6z m4 -92 c-3 -8 -6 -5 -6 6 -1 11 2 17 5 13 3 -3 4
-12 1 -19z m3 -50 c0 -18 -2 -20 -9 -8 -6 8 -7 18 -5 22 9 14 14 9 14 -14z
m-852 -697 c23 -13 8 -25 -23 -17 -19 5 -25 13 -25 32 0 23 2 24 15 10 9 -9
24 -20 33 -25z m-1063 -311 c3 -5 1 -10 -4 -10 -6 0 -11 5 -11 10 0 6 2 10 4
10 3 0 8 -4 11 -10z m408 -10 c3 -13 0 -20 -9 -20 -8 0 -14 9 -14 20 0 11 4
20 9 20 5 0 11 -9 14 -20z m-323 0 c0 -5 -8 -10 -17 -10 -15 0 -16 2 -3 10 19
12 20 12 20 0z m50 -20 c0 -13 -11 -13 -30 0 -12 8 -11 10 8 10 12 0 22 -4 22
-10z m157 -16 c-3 -3 -12 -4 -19 -1 -8 3 -5 6 6 6 11 1 17 -2 13 -5z m994
-2851 c-12 -20 -14 -14 -5 12 4 9 9 14 11 11 3 -2 0 -13 -6 -23z m9 -49 c0 -8
-4 -12 -10 -9 -5 3 -10 10 -10 16 0 5 5 9 10 9 6 0 10 -7 10 -16z m1267 -86
c-3 -8 -6 -5 -6 6 -1 11 2 17 5 13 3 -3 4 -12 1 -19z m-1427 -102 c0 -2 -7 -9
-15 -16 -13 -11 -14 -10 -9 4 5 14 24 23 24 12z m-78 -108 c-7 -7 -12 -8 -12
-2 0 14 12 26 19 19 2 -3 -1 -11 -7 -17z"/>
<path d="M12598 14783 c7 -3 16 -2 19 1 4 3 -2 6 -13 5 -11 0 -14 -3 -6 -6z"/>
<path d="M12485 14755 c-39 -14 -40 -14 -5 -8 41 7 82 22 60 22 -8 0 -33 -7
-55 -14z"/>
<path d="M12398 14723 c7 -3 16 -2 19 1 4 3 -2 6 -13 5 -11 0 -14 -3 -6 -6z"/>
<path d="M12340 14710 c-13 -9 -13 -10 0 -10 8 0 22 5 30 10 13 9 13 10 0 10
-8 0 -22 -5 -30 -10z"/>
<path d="M12270 14690 c-23 -7 -23 -8 -3 -9 12 -1 25 4 28 9 3 6 5 10 3 9 -2
-1 -14 -5 -28 -9z"/>
<path d="M12188 14663 c6 -2 18 -2 25 0 6 3 1 5 -13 5 -14 0 -19 -2 -12 -5z"/>
<path d="M12098 14636 c-20 -6 -40 -15 -45 -20 -4 -5 3 -5 17 0 14 5 44 9 66
9 35 0 39 1 25 12 -19 14 -15 14 -63 -1z"/>
<path d="M11850 14560 c-9 -6 -10 -10 -3 -10 6 0 15 5 18 10 8 12 4 12 -15 0z"/>
<path d="M13047 14540 c-3 -11 -1 -23 4 -26 5 -3 9 6 9 20 0 31 -6 34 -13 6z"/>
<path d="M11705 14519 c-44 -15 -75 -28 -70 -28 13 -1 177 47 183 54 12 12
-38 0 -113 -26z"/>
<path d="M11516 14461 c-4 -5 3 -7 14 -4 23 6 26 13 6 13 -8 0 -17 -4 -20 -9z"/>
<path d="M12865 14049 c-4 -6 -4 -13 -1 -16 3 -4 6 0 6 8 0 11 2 11 10 -1 8
-13 10 -12 10 3 0 19 -15 23 -25 6z"/>
<path d="M12610 13942 c0 -4 5 -13 12 -20 16 -16 28 -15 28 2 0 8 -7 17 -16
20 -21 8 -24 8 -24 -2z"/>
<path d="M12673 13933 c9 -2 23 -2 30 0 6 3 -1 5 -18 5 -16 0 -22 -2 -12 -5z"/>
<path d="M12150 13794 c0 -17 22 -14 28 4 2 7 -3 12 -12 12 -9 0 -16 -7 -16
-16z"/>
<path d="M10631 13474 c0 -11 3 -14 6 -6 3 7 2 16 -1 19 -3 4 -6 -2 -5 -13z"/>
<path d="M10386 13431 c-4 -7 -5 -15 -2 -18 9 -9 19 4 14 18 -4 11 -6 11 -12
0z"/>
<path d="M11158 13413 c7 -3 16 -2 19 1 4 3 -2 6 -13 5 -11 0 -14 -3 -6 -6z"/>
<path d="M10448 13403 c12 -2 32 -2 45 0 12 2 2 4 -23 4 -25 0 -35 -2 -22 -4z"/>
<path d="M10370 13390 c-11 -8 -7 -9 15 -4 37 8 45 14 19 14 -10 0 -26 -5 -34
-10z"/>
<path d="M10205 13350 c-13 -5 -14 -9 -5 -9 8 0 24 4 35 9 13 5 14 9 5 9 -8 0
-24 -4 -35 -9z"/>
<path d="M10140 13330 c-18 -12 -2 -12 25 0 13 6 15 9 5 9 -8 0 -22 -4 -30 -9z"/>
<path d="M9972 13304 c-7 -8 -18 -12 -24 -8 -6 4 -13 2 -17 -5 -5 -8 -15 -8
-38 1 -36 13 -58 1 -74 -39 -10 -26 -29 -31 -29 -7 0 12 -6 15 -22 10 -13 -3
-29 -6 -35 -6 -7 0 -13 -6 -13 -14 0 -7 -12 -21 -26 -31 -18 -12 -23 -20 -15
-24 9 -6 8 -11 -4 -21 -12 -10 -19 -10 -27 -2 -15 15 -28 15 -28 1 0 -5 4 -8
9 -5 5 3 12 -1 15 -10 8 -22 8 -22 -11 -20 -13 1 -17 -6 -16 -24 1 -14 -1 -19
-3 -12 -8 17 -34 15 -34 -2 0 -8 -5 -18 -12 -22 -8 -5 -9 2 -5 24 7 32 -7 53
-17 27 -3 -8 -12 -12 -20 -9 -21 8 -32 -17 -13 -31 24 -17 21 -22 -13 -20 -26
2 -30 -2 -36 -31 -3 -18 -3 -37 0 -42 3 -5 -2 -16 -11 -23 -10 -8 -14 -9 -10
-2 7 12 -11 63 -22 63 -3 0 -12 -9 -19 -20 -7 -11 -23 -20 -36 -20 -16 0 -28
-10 -42 -37 -30 -60 -64 -77 -64 -32 0 10 -4 19 -10 19 -5 0 -10 -6 -10 -12 0
-9 -4 -8 -10 2 -8 13 -10 12 -10 -2 0 -10 5 -18 10 -18 6 0 10 -5 10 -11 0 -5
-4 -8 -9 -4 -10 6 -37 -34 -33 -47 1 -5 -7 -8 -18 -8 -11 0 -23 -8 -26 -17
-11 -36 -37 -83 -47 -83 -20 0 -77 -52 -77 -70 0 -27 -21 -36 -35 -16 -7 9
-19 14 -29 10 -19 -7 -22 -50 -3 -57 8 -3 4 -11 -12 -26 -30 -26 -31 -26 -31
5 0 14 4 23 10 19 6 -3 10 -2 10 4 0 42 -69 -27 -71 -71 l0 -23 -9 23 c-14 33
-30 27 -30 -13 0 -19 -4 -43 -9 -53 -5 -9 -17 -36 -26 -59 -14 -33 -23 -43
-42 -43 -12 0 -23 -5 -23 -11 0 -5 5 -7 10 -4 6 3 10 -2 10 -12 0 -12 -12 -23
-31 -30 -25 -10 -30 -17 -26 -33 3 -11 1 -20 -4 -20 -5 0 -9 7 -9 15 0 8 -7
15 -15 15 -8 0 -15 -9 -15 -19 0 -11 -8 -26 -19 -33 -10 -7 -21 -22 -24 -33
-4 -18 -5 -18 -6 3 -1 25 -26 30 -35 6 -9 -22 -8 -24 10 -24 13 0 14 -3 4 -15
-7 -8 -17 -11 -24 -7 -6 4 -22 7 -36 7 -15 0 -28 8 -35 22 -7 14 -15 19 -21
13 -11 -10 -47 17 -57 43 -3 9 -13 17 -22 17 -8 0 -15 8 -15 18 0 10 -11 29
-26 43 -22 21 -23 25 -9 35 12 9 15 21 9 49 l-6 36 -20 -21 c-25 -27 -49 -11
-42 28 5 26 5 26 -10 7 -10 -13 -15 -15 -16 -7 0 21 -37 64 -45 53 -10 -18
-35 0 -35 25 0 21 -3 24 -27 19 l-28 -6 28 24 c20 17 28 32 25 48 -4 30 -32
31 -36 2 -2 -13 -6 -23 -10 -23 -10 0 -9 54 1 61 6 4 -5 10 -22 14 -20 4 -37
2 -46 -5 -12 -10 -11 -16 7 -40 12 -16 18 -36 14 -45 -7 -20 22 -67 37 -58 6
4 7 1 3 -6 -5 -7 7 -36 27 -69 19 -31 42 -72 52 -91 13 -27 19 -31 27 -20 7
10 8 8 3 -7 -3 -14 8 -51 30 -100 20 -44 51 -131 70 -194 159 -547 88 -1137
-191 -1601 -40 -66 -43 -81 -11 -52 31 29 282 182 342 208 74 33 138 44 188
33 51 -11 170 -70 289 -144 51 -31 94 -51 103 -48 9 4 15 1 15 -8 0 -8 10 -23
22 -34 l22 -19 -18 30 c-45 72 -66 99 -66 85 0 -8 -12 7 -26 34 -14 26 -23 50
-20 54 3 3 6 -1 6 -8 0 -7 3 -11 6 -8 3 4 -9 39 -26 78 -147 336 -200 735
-145 1097 43 285 126 505 286 761 95 152 151 223 274 346 60 61 109 114 107
119 -1 4 4 6 10 5 7 -2 12 2 11 7 -1 6 7 12 18 12 25 2 47 24 41 42 -3 8 0 11
7 7 6 -4 57 24 115 63 57 38 148 94 202 122 55 29 105 60 112 69 8 8 11 10 7
3 -4 -9 1 -10 25 -2 35 13 41 24 8 16 -13 -4 -29 0 -38 7 -13 12 -17 12 -28 0z
m-192 -74 c0 -5 -4 -10 -10 -10 -5 0 -10 5 -10 10 0 6 5 10 10 10 6 0 10 -4
10 -10z m-283 -222 c-3 -8 -6 -5 -6 6 -1 11 2 17 5 13 3 -3 4 -12 1 -19z m-57
-32 c0 -3 -4 -8 -10 -11 -5 -3 -10 -1 -10 4 0 6 5 11 10 11 6 0 10 -2 10 -4z
m-110 -96 c0 -5 -5 -10 -11 -10 -5 0 -7 5 -4 10 3 6 8 10 11 10 2 0 4 -4 4
-10z m-233 -332 c-3 -8 -6 -5 -6 6 -1 11 2 17 5 13 3 -3 4 -12 1 -19z m-877
-89 c11 -19 10 -20 -9 -9 -12 6 -21 15 -21 20 0 18 19 11 30 -11z m57 -131
c-3 -7 -5 -2 -5 12 0 14 2 19 5 13 2 -7 2 -19 0 -25z m470 -80 c-3 -7 -5 -2
-5 12 0 14 2 19 5 13 2 -7 2 -19 0 -25z m-382 -138 c3 -5 1 -10 -4 -10 -6 0
-11 5 -11 10 0 6 2 10 4 10 3 0 8 -4 11 -10z m22 -252 c-3 -7 -5 -2 -5 12 0
14 2 19 5 13 2 -7 2 -19 0 -25z m243 -233 c0 -8 -4 -15 -10 -15 -5 0 -10 7
-10 15 0 8 5 15 10 15 6 0 10 -7 10 -15z m63 -596 c-4 -4 -14 -4 -22 0 -12 8
-12 11 0 24 12 13 15 13 23 0 4 -8 4 -19 -1 -24z m-149 -105 c18 -7 12 -24
-10 -24 -8 0 -14 7 -14 15 0 17 2 18 24 9z m150 -40 c13 -5 14 -10 5 -20 -9
-11 -13 -11 -25 1 -24 23 -14 32 20 19z m-94 -54 c0 -5 -4 -10 -8 -10 -5 0 -9
-13 -10 -30 -1 -31 6 -34 71 -33 9 0 17 -1 17 -2 0 -1 -5 -16 -11 -34 -7 -20
-18 -31 -30 -31 -11 0 -19 -7 -20 -17 0 -14 -2 -15 -6 -3 -8 21 -24 30 -55 30
-32 0 -37 15 -9 29 13 7 18 21 18 49 0 22 3 45 7 51 9 14 36 15 36 1z m-120
-60 c0 -5 -6 -10 -14 -10 -8 0 -18 5 -21 10 -3 6 3 10 14 10 12 0 21 -4 21
-10z m164 -111 c-8 -14 -24 -10 -24 6 0 9 6 12 15 9 8 -4 12 -10 9 -15z m89
-6 c-7 -2 -19 -2 -25 0 -7 3 -2 5 12 5 14 0 19 -2 13 -5z m-18 -33 c3 -6 -1
-7 -9 -4 -18 7 -21 14 -7 14 6 0 13 -4 16 -10z"/>
<path d="M7357 13209 c7 -7 15 -10 18 -7 3 3 -2 9 -12 12 -14 6 -15 5 -6 -5z"/>
<path d="M7477 13139 c7 -7 15 -10 18 -7 3 3 -2 9 -12 12 -14 6 -15 5 -6 -5z"/>
<path d="M9580 13130 c0 -5 5 -10 10 -10 6 0 10 5 10 10 0 6 -4 10 -10 10 -5
0 -10 -4 -10 -10z"/>
<path d="M7510 13116 c0 -2 7 -7 16 -10 8 -3 12 -2 9 4 -6 10 -25 14 -25 6z"/>
<path d="M7610 13045 c7 -9 15 -13 17 -11 7 7 -7 26 -19 26 -6 0 -6 -6 2 -15z"/>
<path d="M7655 13050 c3 -5 8 -10 11 -10 2 0 4 5 4 10 0 6 -5 10 -11 10 -5 0
-7 -4 -4 -10z"/>
<path d="M7722 12958 c24 -20 32 -23 22 -7 -3 6 -1 14 5 18 7 4 -2 8 -18 8
l-30 0 21 -19z"/>
<path d="M7820 12865 c7 -8 17 -15 22 -15 6 0 5 7 -2 15 -7 8 -17 15 -22 15
-6 0 -5 -7 2 -15z"/>
<path d="M7879 12806 c19 -20 37 -36 39 -36 10 0 -46 64 -59 68 -8 3 2 -12 20
-32z"/>
<path d="M7942 12814 c-7 -8 -12 -20 -9 -27 2 -7 9 -2 16 11 15 28 11 36 -7
16z"/>
<path d="M4166 12728 l-18 -33 21 25 c18 22 26 40 18 40 -1 0 -11 -15 -21 -32z"/>
<path d="M8040 12731 c0 -5 5 -13 10 -16 6 -3 10 -2 10 4 0 5 -4 13 -10 16 -5
3 -10 2 -10 -4z"/>
<path d="M8006 12693 c5 -5 12 -12 16 -18 4 -6 8 -2 8 8 0 9 -7 17 -17 17 -9
0 -12 -3 -7 -7z"/>
<path d="M7990 12676 c0 -2 8 -10 18 -17 15 -13 16 -12 3 4 -13 16 -21 21 -21
13z"/>
<path d="M8029 12625 c15 -32 40 -61 41 -48 0 7 -12 25 -26 40 -16 18 -22 21
-15 8z"/>
<path d="M4864 12595 c-9 -14 -21 -22 -28 -18 -6 3 -8 3 -4 -2 4 -4 1 -20 -8
-36 -23 -46 -10 -34 30 26 20 30 34 55 31 55 -2 0 -12 -11 -21 -25z"/>
<path d="M4085 12600 c-3 -5 -1 -10 4 -10 6 0 11 5 11 10 0 6 -2 10 -4 10 -3
0 -8 -4 -11 -10z"/>
<path d="M8190 12530 c0 -19 3 -21 12 -12 9 9 9 15 0 24 -9 9 -12 7 -12 -12z"/>
<path d="M4790 12480 c-6 -11 -8 -20 -6 -20 3 0 10 9 16 20 6 11 8 20 6 20 -3
0 -10 -9 -16 -20z"/>
<path d="M4757 12439 c6 -23 9 -24 16 -5 3 8 0 17 -7 19 -10 4 -12 -1 -9 -14z"/>
<path d="M8711 12444 c0 -11 3 -14 6 -6 3 7 2 16 -1 19 -3 4 -6 -2 -5 -13z"/>
<path d="M4715 12349 c-4 -6 -5 -12 -2 -15 2 -3 7 2 10 11 7 17 1 20 -8 4z"/>
<path d="M4665 12249 c-4 -6 -5 -12 -2 -15 2 -3 7 2 10 11 7 17 1 20 -8 4z"/>
<path d="M4640 12197 c0 -9 -4 -17 -10 -17 -5 0 -10 -7 -10 -15 0 -8 -5 -15
-11 -15 -5 0 -9 -8 -8 -17 3 -32 -1 -44 -11 -38 -5 3 -9 -7 -9 -22 1 -27 -15
-98 -32 -138 -6 -15 -8 -10 -8 22 -1 23 4 45 9 48 6 3 10 11 10 17 0 7 -9 2
-21 -11 -16 -17 -20 -30 -15 -52 3 -17 2 -28 -4 -24 -5 3 -8 -3 -7 -14 0 -11
5 -17 9 -15 4 3 8 -1 8 -10 0 -8 -4 -16 -9 -18 -5 -1 -11 -28 -13 -60 -1 -31
-6 -54 -10 -52 -5 3 -8 13 -8 22 0 12 -3 13 -12 4 -6 -6 -11 -37 -11 -69 1
-37 -2 -49 -6 -33 -5 18 -9 21 -15 12 -4 -7 -5 -16 -2 -19 3 -3 1 -12 -4 -18
-15 -18 -50 -125 -50 -152 0 -12 4 -23 8 -23 12 0 5 -94 -7 -98 -18 -6 -13
-42 7 -42 12 0 14 -2 4 -8 -7 -5 -10 -16 -6 -25 7 -19 24 -23 24 -5 0 6 3 8 6
5 4 -4 -1 -18 -10 -31 -18 -28 -22 -76 -6 -76 7 0 7 -6 0 -19 -15 -28 -12 -51
5 -51 11 0 15 -11 15 -36 0 -21 -4 -33 -10 -29 -18 11 -23 -24 -7 -49 23 -34
25 -159 4 -181 -23 -22 -21 -29 8 -51 14 -10 25 -24 25 -30 0 -6 6 -17 14 -23
7 -6 11 -22 8 -36 -3 -20 0 -25 17 -25 18 0 20 -4 15 -24 -8 -32 27 -54 46
-31 17 20 40 2 40 -31 0 -32 45 -34 53 -3 8 29 25 15 19 -16 -2 -14 -11 -25
-21 -26 -13 0 -12 -2 3 -8 18 -7 18 -8 3 -14 -22 -8 -24 -67 -3 -67 8 0 21 -7
30 -15 13 -13 19 -14 36 -3 11 7 18 19 15 25 -7 21 3 15 16 -8 8 -15 8 -19 0
-15 -6 4 -11 1 -11 -8 0 -8 -4 -16 -10 -18 -5 -1 -7 -14 -3 -26 4 -18 8 -20
14 -10 7 10 9 10 9 -2 1 -11 4 -10 16 5 15 20 15 19 12 -5 -2 -14 -9 -24 -16
-22 -15 3 -15 -8 -1 -28 8 -11 12 -12 16 -2 7 17 23 15 23 -4 0 -8 4 -13 8
-10 5 3 21 -7 36 -21 36 -33 45 -22 14 19 -49 65 -155 254 -177 318 -13 36
-31 83 -41 105 -38 87 -65 188 -97 360 -28 155 -25 527 5 690 26 142 64 289
93 363 12 29 19 56 15 59 -3 3 -6 -1 -6 -10z m-153 -579 c-3 -8 -6 -5 -6 6 -1
11 2 17 5 13 3 -3 4 -12 1 -19z m-40 -20 c-3 -8 -6 -5 -6 6 -1 11 2 17 5 13 3
-3 4 -12 1 -19z m53 -388 c0 -22 -2 -40 -4 -40 -2 0 -6 18 -8 40 -2 22 0 40 4
40 5 0 8 -18 8 -40z m133 -551 c-4 -13 -9 -17 -15 -11 -11 11 -3 32 12 32 4 0
6 -9 3 -21z m-26 -71 c-3 -8 -6 -5 -6 6 -1 11 2 17 5 13 3 -3 4 -12 1 -19z
m93 -114 c0 -8 -4 -12 -10 -9 -5 3 -10 10 -10 16 0 5 5 9 10 9 6 0 10 -7 10
-16z m110 -124 c0 -5 -2 -10 -4 -10 -3 0 -8 5 -11 10 -3 6 -1 10 4 10 6 0 11
-4 11 -10z"/>
<path d="M4590 12191 c0 -5 5 -13 10 -16 6 -3 10 -2 10 4 0 5 -4 13 -10 16 -5
3 -10 2 -10 -4z"/>
<path d="M3778 11970 c-136 -390 -163 -477 -212 -676 -77 -315 -141 -702 -151
-909 -2 -49 -2 -74 1 -55 2 19 11 78 19 130 20 134 29 212 26 232 -1 9 3 20
10 24 9 5 11 -6 7 -44 -5 -47 -4 -50 13 -41 14 7 17 17 13 39 -6 26 -4 28 15
23 34 -9 49 22 49 95 0 46 -4 62 -14 62 -18 0 -18 25 1 44 8 8 15 25 15 37 0
22 0 22 -15 3 -11 -15 -14 -16 -15 -3 0 8 7 24 15 35 16 22 20 48 5 39 -5 -3
-12 6 -16 20 -3 13 -10 22 -15 19 -5 -3 -9 -1 -9 5 0 15 18 23 25 11 11 -17
25 -11 25 11 0 12 -4 17 -11 13 -6 -3 -4 7 5 24 10 19 14 42 10 61 -6 26 -4
30 10 25 11 -4 16 -1 16 10 0 10 8 16 23 16 18 0 19 -2 7 -10 -13 -8 -13 -10
1 -10 11 0 18 12 22 37 4 20 4 39 2 42 -3 2 -5 -4 -5 -13 0 -27 -25 -13 -27
15 0 13 -2 26 -3 29 -1 3 -4 30 -6 60 -3 52 -3 53 9 23 17 -44 27 -51 25 -17
-1 16 2 44 6 61 6 28 5 32 -8 27 -11 -4 -16 -1 -16 10 0 9 5 16 10 16 6 0 10
11 10 24 0 14 4 28 10 31 6 4 7 -6 4 -25 -4 -19 -2 -30 5 -30 17 0 24 44 13
84 -6 20 -7 36 -2 36 5 0 10 -9 12 -20 2 -13 7 -17 15 -12 9 6 10 17 4 40 -7
21 -6 31 1 29 13 -2 30 52 23 73 -3 9 6 27 20 42 17 18 25 39 25 63 0 19 4 35
9 35 14 0 22 79 13 120 l-8 35 -16 -45z m22 -39 c0 -5 -6 -14 -14 -20 -12 -10
-13 -8 -9 8 5 21 23 30 23 12z m-200 -646 c0 -8 -4 -15 -10 -15 -5 0 -7 7 -4
15 4 8 8 15 10 15 2 0 4 -7 4 -15z m-93 -367 c-3 -8 -6 -5 -6 6 -1 11 2 17 5
13 3 -3 4 -12 1 -19z m30 -123 c9 -8 9 -14 -2 -29 -13 -17 -15 -18 -15 -3 0
19 -15 23 -25 7 -3 -5 -12 -10 -18 -10 -8 0 -7 3 2 9 7 5 11 14 7 19 -4 6 -4
23 0 37 l6 26 16 -23 c9 -13 22 -27 29 -33z"/>
<path d="M4400 10760 c0 -5 9 -10 20 -10 11 0 20 5 20 10 0 6 -9 10 -20 10
-11 0 -20 -4 -20 -10z"/>
<path d="M3580 10745 c0 -7 7 -16 16 -19 40 -15 47 3 9 21 -20 9 -25 8 -25 -2z"/>
<path d="M13178 10613 c7 -3 16 -2 19 1 4 3 -2 6 -13 5 -11 0 -14 -3 -6 -6z"/>
<path d="M13584 10512 c-7 -4 -12 -20 -12 -36 0 -19 3 -24 9 -15 5 8 9 10 10
4 1 -12 17 25 18 43 1 14 -8 15 -25 4z"/>
<path d="M13475 10500 c-3 -5 -1 -10 4 -10 6 0 11 5 11 10 0 6 -2 10 -4 10 -3
0 -8 -4 -11 -10z"/>
<path d="M13541 10494 c0 -11 3 -14 6 -6 3 7 2 16 -1 19 -3 4 -6 -2 -5 -13z"/>
<path d="M13305 10440 c3 -5 8 -10 11 -10 2 0 4 5 4 10 0 6 -5 10 -11 10 -5 0
-7 -4 -4 -10z"/>
<path d="M13580 10420 c-12 -8 -11 -10 7 -10 12 0 25 5 28 10 8 13 -15 13 -35
0z"/>
<path d="M3396 10142 c-4 -85 -5 -156 -3 -158 6 -7 20 254 15 286 -2 14 -7
-44 -12 -128z"/>
<path d="M4820 10259 c0 -5 5 -7 10 -4 6 3 10 8 10 11 0 2 -4 4 -10 4 -5 0
-10 -5 -10 -11z"/>
<path d="M4860 10260 c-8 -5 -10 -10 -4 -10 6 0 21 -9 33 -19 17 -15 21 -26
16 -43 -5 -17 -4 -19 3 -9 9 12 13 12 26 -2 9 -8 13 -23 10 -31 -3 -9 -1 -17
5 -17 6 -1 16 -2 22 -3 7 0 15 -10 20 -21 4 -11 8 -15 8 -10 1 6 15 -6 31 -25
16 -19 30 -30 30 -24 0 6 -10 19 -21 30 -17 15 -72 80 -158 186 -4 4 -13 3
-21 -2z"/>
<path d="M4830 10229 c0 -5 5 -7 10 -4 6 3 10 8 10 11 0 2 -4 4 -10 4 -5 0
-10 -5 -10 -11z"/>
<path d="M13747 10099 c6 -22 23 -26 23 -5 0 8 -6 16 -14 19 -10 4 -12 0 -9
-14z"/>
<path d="M12230 10100 c0 -5 5 -10 10 -10 6 0 10 5 10 10 0 6 -4 10 -10 10 -5
0 -10 -4 -10 -10z"/>
<path d="M7775 9992 c-38 -42 -63 -71 -53 -64 14 11 17 10 20 -5 3 -16 5 -16
26 5 26 26 32 27 32 6 0 -12 5 -10 19 7 25 31 70 32 94 2 9 -11 17 -26 17 -33
0 -6 5 -8 10 -5 6 3 10 3 10 -2 1 -4 12 -21 26 -38 37 -42 18 -11 -31 55 -23
30 -54 76 -69 103 -15 26 -29 47 -29 46 -1 0 -33 -35 -72 -77z m48 -28 c-6
-15 -7 -15 -15 5 -10 28 1 51 13 28 5 -8 6 -23 2 -33z"/>
<path d="M9329 10019 c-12 -24 -53 -87 -92 -139 -39 -52 -75 -102 -81 -110 -6
-8 0 -6 12 5 13 11 31 32 40 47 9 16 24 28 33 28 22 0 66 36 57 46 -4 4 -14 1
-23 -6 -20 -16 -19 -3 1 17 14 14 16 14 27 0 7 -10 31 -17 62 -19 41 -2 49 -6
47 -20 -2 -14 5 -17 42 -16 33 0 43 4 39 14 -3 8 0 14 6 14 6 0 11 -8 11 -17
1 -17 1 -17 14 0 18 23 29 22 21 -3 -3 -11 -2 -28 4 -37 6 -10 11 -13 11 -8 0
6 4 16 8 23 10 16 44 4 35 -12 -3 -6 -2 -8 2 -3 5 4 17 0 27 -10 10 -9 21 -14
24 -11 8 9 -78 68 -89 61 -6 -3 -7 -2 -4 4 3 5 -4 18 -16 28 -12 10 -32 26
-44 37 -17 16 -25 18 -45 8 -20 -10 -21 -9 -6 3 19 15 17 16 -74 96 l-27 23
-22 -43z"/>
<path d="M5085 10020 c10 -11 20 -20 23 -20 3 0 -3 9 -13 20 -10 11 -20 20
-23 20 -3 0 3 -9 13 -20z"/>
<path d="M12068 9975 c-26 -25 -44 -45 -39 -45 4 0 27 20 51 45 57 58 49 58
-12 0z"/>
<path d="M5135 9970 c10 -11 20 -20 23 -20 3 0 -3 9 -13 20 -10 11 -20 20 -23
20 -3 0 3 -9 13 -20z"/>
<path d="M7891 9924 c0 -11 3 -14 6 -6 3 7 2 16 -1 19 -3 4 -6 -2 -5 -13z"/>
<path d="M7650 9879 c-19 -16 -30 -29 -25 -29 12 1 69 50 64 55 -2 1 -20 -10
-39 -26z"/>
<path d="M3415 9884 c-102 -52 -304 -340 -462 -659 -55 -110 -111 -229 -126
-265 -78 -198 -100 -261 -145 -420 -108 -375 -167 -694 -178 -970 -6 -123 -5
-126 23 -180 32 -64 85 -100 146 -100 99 0 319 104 513 242 45 32 85 58 91 58
22 0 180 161 303 309 73 88 135 159 138 157 2 -2 -2 -31 -9 -65 -18 -96 -7
-291 22 -371 34 -92 113 -172 194 -195 75 -22 120 -16 214 31 62 31 97 58 186
148 61 61 142 155 180 209 96 135 114 157 115 135 0 -10 -4 -18 -10 -18 -5 0
-10 -7 -10 -15 0 -8 5 -15 10 -15 6 0 10 -7 10 -15 0 -13 3 -13 20 -3 11 7 20
18 20 25 0 8 10 6 33 -6 17 -11 47 -22 65 -26 18 -4 36 -13 38 -20 3 -7 14
-15 25 -18 10 -3 19 -12 19 -21 0 -9 8 -16 19 -16 11 0 21 -9 24 -21 3 -12 10
-18 16 -15 5 4 12 2 16 -4 8 -13 55 -13 55 0 0 6 -4 10 -10 10 -5 0 -9 10 -9
23 1 16 2 18 6 5 2 -10 11 -18 20 -18 9 0 13 -6 9 -15 -3 -8 -2 -15 3 -15 12
0 20 -55 26 -175 3 -55 7 -111 9 -124 2 -14 -2 -31 -10 -38 -10 -11 -11 -19
-4 -34 6 -10 7 -20 3 -20 -33 -5 -84 -19 -108 -29 -11 -5 -33 -11 -49 -12 -28
-3 -33 -12 -112 -193 -45 -104 -105 -230 -134 -280 -75 -130 -183 -269 -245
-318 -30 -23 -53 -43 -51 -44 6 -6 106 62 106 72 0 16 42 40 70 40 17 0 29 9
38 28 7 15 18 25 23 22 5 -4 5 -14 -2 -26 -14 -27 -11 -29 37 -20 59 11 106 2
111 -20 5 -17 49 -33 78 -29 6 1 15 -11 22 -27 11 -25 12 -26 13 -5 0 24 30
32 30 7 0 -8 7 -15 16 -15 8 0 13 4 9 10 -3 5 3 18 13 28 19 19 19 19 36 -7
l17 -26 -7 38 c-4 24 -2 37 5 37 6 0 11 -10 12 -22 0 -22 1 -22 8 -3 5 11 6
26 4 33 -3 6 0 12 6 12 15 0 14 -55 -4 -120 -8 -30 -18 -68 -21 -85 -3 -16
-14 -65 -25 -109 -23 -89 -19 -116 5 -34 102 357 141 639 140 1033 -1 387 -41
669 -145 1014 -69 228 -153 421 -265 607 -105 175 -109 181 -240 344 -92 114
-298 319 -398 394 -258 196 -486 285 -591 230z m1216 -1907 c-10 -9 -11 -8 -5
6 3 10 9 15 12 12 3 -3 0 -11 -7 -18z m-71 -1273 c0 -3 -7 -12 -15 -20 -16
-17 -18 -14 -9 10 6 15 24 23 24 10z m420 -34 c0 -5 -5 -10 -11 -10 -5 0 -7 5
-4 10 3 6 8 10 11 10 2 0 4 -4 4 -10z m-357 -40 c-3 -12 -6 -19 -7 -18 -1 2
-8 11 -15 21 -12 15 -11 17 7 17 15 0 19 -5 15 -20z m-123 -10 c0 -5 -4 -10
-10 -10 -5 0 -10 5 -10 10 0 6 5 10 10 10 6 0 10 -4 10 -10z m285 -40 c3 -5 1
-10 -4 -10 -6 0 -11 5 -11 10 0 6 2 10 4 10 3 0 8 -4 11 -10z"/>
<path d="M7705 9890 c-3 -5 -1 -10 4 -10 6 0 11 5 11 10 0 6 -2 10 -4 10 -3 0
-8 -4 -11 -10z"/>
<path d="M11910 9848 c-122 -94 -139 -110 -51 -51 27 18 37 21 44 11 6 -10 7
-9 4 2 -6 24 44 63 56 43 2 -5 2 -3 1 4 -2 7 4 19 12 28 31 30 -3 12 -66 -37z"/>
<path d="M13619 9889 c-141 -33 -369 -181 -596 -387 -153 -140 -285 -300 -421
-512 -143 -223 -230 -420 -332 -755 -16 -54 -50 -208 -65 -300 -8 -49 -19
-117 -25 -150 -12 -69 -26 -343 -17 -334 6 4 22 99 32 179 4 38 15 59 28 54
23 -8 40 13 33 40 -4 15 -11 24 -16 21 -13 -8 -13 18 -1 31 5 5 11 18 14 29 5
19 5 19 12 -2 8 -24 25 -32 25 -12 0 6 7 9 15 6 19 -8 31 11 16 26 -6 6 -10
22 -10 36 1 18 3 21 6 8 3 -12 12 -17 26 -15 17 2 23 11 25 37 2 22 10 35 22
38 10 3 24 18 30 34 13 30 24 36 35 19 6 -10 36 3 63 27 11 10 8 21 -14 60
-14 27 -33 56 -42 66 -8 9 -13 20 -10 23 8 8 62 -67 137 -190 230 -376 492
-589 673 -546 179 44 271 269 233 577 -8 67 -12 69 80 -45 157 -196 379 -399
532 -485 32 -19 77 -46 100 -61 62 -41 220 -107 274 -113 105 -12 174 28 205
119 19 59 16 129 -17 393 -53 428 -131 732 -286 1119 -46 115 -118 277 -161
360 -135 265 -344 554 -434 602 -29 15 -112 17 -169 3z"/>
<path d="M7573 9821 c-13 -11 -23 -23 -23 -27 0 -4 9 1 19 10 11 10 24 15 30
11 7 -3 8 0 5 9 -7 19 -4 19 -31 -3z"/>
<path d="M9680 9780 c0 -5 5 -10 11 -10 5 0 7 5 4 10 -3 6 -8 10 -11 10 -2 0
-4 -4 -4 -10z"/>
<path d="M11570 9640 c-9 -6 -10 -10 -3 -10 6 0 15 5 18 10 8 12 4 12 -15 0z"/>
<path d="M10090 9580 c8 -5 20 -10 25 -10 6 0 3 5 -5 10 -8 5 -19 10 -25 10
-5 0 -3 -5 5 -10z"/>
<path d="M10130 9566 c0 -2 7 -7 16 -10 8 -3 12 -2 9 4 -6 10 -25 14 -25 6z"/>
<path d="M11370 9560 c-8 -5 -10 -10 -5 -10 6 0 17 5 25 10 8 5 11 10 5 10 -5
0 -17 -5 -25 -10z"/>
<path d="M6920 9520 c-11 -8 -7 -9 15 -4 37 8 45 14 19 14 -10 0 -26 -5 -34
-10z"/>
<path d="M10258 9523 c7 -3 16 -2 19 1 4 3 -2 6 -13 5 -11 0 -14 -3 -6 -6z"/>
<path d="M11240 9520 c-13 -9 -13 -10 0 -10 8 0 22 5 30 10 13 9 13 10 0 10
-8 0 -22 -5 -30 -10z"/>
<path d="M5988 9513 c6 -2 18 -2 25 0 6 3 1 5 -13 5 -14 0 -19 -2 -12 -5z"/>
<path d="M6048 9503 c7 -3 16 -2 19 1 4 3 -2 6 -13 5 -11 0 -14 -3 -6 -6z"/>
<path d="M10338 9503 c7 -3 16 -2 19 1 4 3 -2 6 -13 5 -11 0 -14 -3 -6 -6z"/>
<path d="M6143 9483 c9 -2 23 -2 30 0 6 3 -1 5 -18 5 -16 0 -22 -2 -12 -5z"/>
<path d="M10448 9483 c7 -3 16 -2 19 1 4 3 -2 6 -13 5 -11 0 -14 -3 -6 -6z"/>
<path d="M11078 9483 c6 -2 18 -2 25 0 6 3 1 5 -13 5 -14 0 -19 -2 -12 -5z"/>
<path d="M11003 9473 c9 -2 23 -2 30 0 6 3 -1 5 -18 5 -16 0 -22 -2 -12 -5z"/>
<path d="M10613 9463 c9 -2 23 -2 30 0 6 3 -1 5 -18 5 -16 0 -22 -2 -12 -5z"/>
<path d="M12530 7975 c0 -14 2 -25 4 -25 2 0 6 11 8 25 3 14 1 25 -3 25 -5 0
-9 -11 -9 -25z"/>
<path d="M4573 7880 c-6 -17 -8 -30 -3 -30 8 0 24 50 18 56 -2 2 -9 -10 -15
-26z"/>
<path d="M7990 7899 c-11 -7 -4 -8 25 -3 50 8 58 14 19 14 -16 0 -36 -5 -44
-11z"/>
<path d="M9133 7900 c-23 -9 -158 -120 -147 -120 13 0 74 42 74 50 0 9 11 8
63 -5 17 -5 27 -3 27 4 0 6 7 8 15 5 8 -4 15 -12 15 -20 0 -18 76 -19 83 -1 3
6 6 2 6 -10 1 -27 21 -32 21 -5 0 28 -37 80 -69 97 -33 17 -55 18 -88 5z"/>
<path d="M4681 7874 c0 -11 3 -14 6 -6 3 7 2 16 -1 19 -3 4 -6 -2 -5 -13z"/>
<path d="M6105 7870 c-12 -4 -27 -16 -35 -26 -14 -16 -13 -16 8 -5 12 7 32 9
44 5 14 -4 18 -2 14 5 -9 14 29 15 56 0 11 -6 22 -8 25 -6 7 8 -53 37 -74 36
-10 0 -27 -4 -38 -9z"/>
<path d="M7275 7864 c-37 -18 -134 -104 -119 -104 6 0 30 17 53 39 40 37 51
41 51 15 0 -8 -6 -11 -15 -8 -21 8 -19 -12 4 -35 19 -19 19 -19 26 6 5 21 10
24 36 18 32 -7 69 -37 69 -56 0 -5 5 -7 10 -4 6 3 10 13 10 21 0 8 -4 13 -9 9
-6 -3 -15 4 -21 15 -11 20 -10 21 10 10 21 -11 21 -11 5 13 -9 14 -12 28 -7
31 4 2 16 -9 26 -25 19 -32 35 -34 18 -2 -31 56 -97 82 -147 57z m95 -18 c0
-3 -4 -8 -10 -11 -5 -3 -10 -1 -10 4 0 6 5 11 10 11 6 0 10 -2 10 -4z"/>
<path d="M8032 7868 c5 -15 28 -23 28 -10 0 5 -7 13 -16 16 -10 4 -14 1 -12
-6z"/>
<path d="M11004 7861 c-17 -11 -44 -32 -61 -48 -16 -15 -46 -43 -68 -62 -22
-19 -29 -27 -15 -17 36 24 50 29 57 22 4 -3 -2 -13 -13 -21 -15 -12 -16 -16
-5 -24 8 -5 10 -14 6 -21 -6 -10 -1 -11 18 -6 16 4 27 2 29 -6 3 -8 19 -12 41
-10 31 3 39 0 46 -20 7 -15 10 -18 10 -7 1 9 8 19 16 23 19 7 19 -3 0 -28 -17
-23 -20 -56 -5 -56 6 0 15 12 21 28 6 15 13 21 16 15 3 -7 -10 -34 -27 -60
l-32 -48 31 29 c69 66 122 228 93 283 -13 24 -70 53 -104 53 -12 0 -37 -9 -54
-19z m126 -201 c-6 -12 -14 -19 -17 -16 -4 3 0 18 8 32 7 14 15 21 17 15 2 -5
-2 -20 -8 -31z"/>
<path d="M9845 7860 c-4 -6 1 -7 12 -3 16 6 16 5 5 -10 -14 -17 -7 -42 9 -32
5 4 9 1 9 -4 0 -6 7 -11 15 -11 8 0 15 5 15 10 0 6 -5 10 -12 10 -6 0 -2 9 11
21 25 24 21 39 -5 18 -13 -11 -18 -11 -21 -1 -5 14 -29 16 -38 2z"/>
<path d="M6160 7840 c0 -5 5 -10 10 -10 6 0 10 5 10 10 0 6 -4 10 -10 10 -5 0
-10 -4 -10 -10z"/>
<path d="M6087 7823 c-4 -3 -7 -11 -7 -17 0 -6 5 -5 12 2 6 6 9 14 7 17 -3 3
-9 2 -12 -2z"/>
<path d="M9975 7820 c3 -5 8 -10 11 -10 2 0 4 5 4 10 0 6 -5 10 -11 10 -5 0
-7 -4 -4 -10z"/>
<path d="M9070 7811 c0 -5 5 -13 10 -16 6 -3 10 -2 10 4 0 5 -4 13 -10 16 -5
3 -10 2 -10 -4z"/>
<path d="M6042 7740 c-1 -19 5 -48 12 -65 13 -29 13 -29 13 24 -1 31 -4 46 -8
35 -5 -16 -7 -14 -11 11 -5 29 -5 29 -6 -5z"/>
<path d="M7190 7760 c-13 -8 -12 -10 3 -10 9 0 17 5 17 10 0 12 -1 12 -20 0z"/>
<path d="M9271 7763 c-1 -6 -4 -20 -7 -30 -5 -17 -5 -17 6 0 6 10 9 23 6 30
-3 9 -5 9 -5 0z"/>
<path d="M6329 7741 c13 -12 28 -21 35 -21 12 0 -5 14 -39 31 -16 8 -15 6 4
-10z"/>
<path d="M9810 7733 c0 -12 5 -23 10 -23 6 0 10 4 10 9 0 5 2 16 5 24 4 8 0
14 -10 14 -9 0 -15 -9 -15 -24z"/>
<path d="M6275 7740 c3 -5 8 -10 11 -10 2 0 4 5 4 10 0 6 -5 10 -11 10 -5 0
-7 -4 -4 -10z"/>
<path d="M7930 7745 c0 -5 5 -17 10 -25 5 -8 10 -10 10 -5 0 6 -5 17 -10 25
-5 8 -10 11 -10 5z"/>
<path d="M9780 7741 c0 -18 52 -133 57 -127 4 4 -4 25 -43 111 -7 17 -14 24
-14 16z"/>
<path d="M10855 7700 c3 -5 8 -10 11 -10 2 0 4 5 4 10 0 6 -5 10 -11 10 -5 0
-7 -4 -4 -10z"/>
<path d="M9950 7480 c0 -5 5 -10 11 -10 5 0 7 5 4 10 -3 6 -8 10 -11 10 -2 0
-4 -4 -4 -10z"/>
<path d="M10995 7480 c-3 -5 -1 -10 4 -10 6 0 11 5 11 10 0 6 -2 10 -4 10 -3
0 -8 -4 -11 -10z"/>
<path d="M13990 7452 c6 -13 14 -21 18 -18 3 4 -2 14 -12 24 -18 16 -18 16 -6
-6z"/>
<path d="M9997 7439 c7 -7 15 -10 18 -7 3 3 -2 9 -12 12 -14 6 -15 5 -6 -5z"/>
<path d="M12153 7185 c8 -345 36 -555 108 -815 57 -202 72 -248 77 -227 2 10
-1 23 -6 30 -6 7 -13 30 -17 52 -3 22 -10 49 -15 60 -12 30 -40 156 -40 183 0
13 -5 33 -11 44 -16 29 -2 149 16 142 7 -3 11 -14 8 -25 -3 -10 0 -19 6 -19
22 0 7 66 -18 74 -9 3 8 3 37 0 47 -4 54 -3 59 15 3 11 13 21 24 23 14 2 16 7
9 18 -9 13 -11 13 -19 1 -8 -12 -13 -12 -35 2 -32 21 -44 21 -48 0 -3 -15 -4
-15 -17 0 -11 15 -11 17 2 17 9 0 18 9 22 19 6 20 6 20 26 0 28 -28 77 -25
105 9 20 23 24 24 24 8 0 -15 6 -17 35 -14 24 3 35 0 35 -9 0 -7 7 -13 16 -13
18 0 37 -17 47 -42 8 -22 23 -23 31 -3 4 12 12 8 37 -17 17 -18 43 -48 58 -67
50 -65 134 -141 157 -141 4 0 -11 13 -32 28 -120 87 -275 327 -383 596 -34 82
-64 152 -67 155 -7 6 3 -59 12 -83 4 -10 -10 -13 -53 -12 -52 1 -58 -1 -61
-20 -2 -16 -8 -20 -21 -17 -19 5 -30 -17 -32 -67 -1 -21 -2 -19 -9 9 -5 19 -6
40 -3 48 3 7 -4 22 -16 32 -22 19 -28 41 -11 41 6 0 10 12 10 26 0 22 -2 25
-15 14 -16 -14 -16 -16 -19 122 0 36 -5 70 -10 75 -5 4 -6 -103 -3 -252z m239
-66 c5 -4 8 -15 5 -25 -4 -17 -6 -17 -12 4 -5 15 -16 22 -34 23 -26 0 -26 0
-3 11 12 6 23 18 23 27 1 9 4 5 6 -9 3 -14 10 -28 15 -31z m27 1 c0 -10 -3 -8
-9 5 -12 27 -12 43 0 25 5 -8 9 -22 9 -30z m21 -36 c0 -8 -4 -12 -10 -9 -5 3
-10 10 -10 16 0 5 5 9 10 9 6 0 10 -7 10 -16z m-120 -15 c0 -18 -2 -20 -15 -9
-13 11 -13 15 -3 21 18 12 18 12 18 -12z m147 -81 c-3 -7 -5 -2 -5 12 0 14 2
19 5 13 2 -7 2 -19 0 -25z m33 -39 c0 -6 -4 -7 -10 -4 -5 3 -10 11 -10 16 0 6
5 7 10 4 6 -3 10 -11 10 -16z m-110 -26 c0 -8 7 -21 15 -30 20 -19 16 -24 -12
-17 -20 6 -47 56 -36 67 9 10 33 -5 33 -20z m86 0 c7 -10 13 -22 13 -28 0 -5
-4 -2 -10 8 -5 9 -17 17 -25 17 -8 0 -12 5 -9 10 9 14 16 12 31 -7z m-228 -30
c-32 -17 -36 -16 -31 11 5 22 8 23 30 13 l24 -11 -23 -13z m275 18 c3 -12 -1
-22 -10 -25 -8 -3 -12 -10 -8 -15 3 -5 0 -13 -6 -17 -9 -5 -10 0 -6 17 4 13 7
32 7 42 0 23 16 22 23 -2z m-53 -38 c0 -19 -13 -9 -16 12 -1 8 2 13 7 9 5 -3
9 -12 9 -21z m83 -28 c-7 -21 -13 -19 -13 6 0 11 4 18 10 14 5 -3 7 -12 3 -20z
m-289 -21 c3 -8 2 -12 -4 -9 -6 3 -10 10 -10 16 0 14 7 11 14 -7z"/>
<path d="M14020 7415 c0 -9 44 -69 75 -101 11 -12 51 -58 90 -102 38 -45 71
-79 74 -77 2 3 -18 28 -45 57 -27 29 -78 89 -113 133 -81 100 -81 101 -81 90z"/>
<path d="M3144 7378 l-19 -23 23 19 c21 18 27 26 19 26 -2 0 -12 -10 -23 -22z"/>
<path d="M3082 7302 c-22 -26 -54 -65 -72 -87 -17 -22 -91 -103 -165 -180
-166 -174 -172 -182 -107 -120 48 45 135 132 217 220 56 60 180 215 172 215
-2 0 -23 -21 -45 -48z"/>
<path d="M12255 7250 c-3 -5 -1 -10 4 -10 6 0 11 5 11 10 0 6 -2 10 -4 10 -3
0 -8 -4 -11 -10z"/>
<path d="M14271 7113 c0 -5 17 -21 37 -37 l37 -30 -34 37 c-36 38 -42 42 -40
30z"/>
<path d="M14362 7014 c10 -10 20 -15 24 -12 3 4 -5 12 -18 18 -22 12 -22 12
-6 -6z"/>
<path d="M14455 6920 c3 -5 8 -10 11 -10 2 0 4 5 4 10 0 6 -5 10 -11 10 -5 0
-7 -4 -4 -10z"/>
<path d="M14568 6822 c55 -55 62 -66 64 -104 l1 -43 4 38 c5 48 -9 71 -79 127
l-53 43 63 -61z"/>
<path d="M2655 6850 c-3 -5 -1 -10 4 -10 6 0 11 5 11 10 0 6 -2 10 -4 10 -3 0
-8 -4 -11 -10z"/>
<path d="M2597 6799 c-20 -17 -37 -38 -36 -47 0 -14 2 -14 6 -2 3 8 21 30 41
47 47 42 39 43 -11 2z"/>
<path d="M12470 6715 c0 -8 5 -15 10 -15 6 0 10 7 10 15 0 8 -4 15 -10 15 -5
0 -10 -7 -10 -15z"/>
<path d="M13280 6687 c0 -29 -61 -134 -98 -170 -22 -21 -56 -44 -77 -51 -21
-7 -33 -16 -27 -20 5 -3 35 7 66 23 31 15 56 24 56 20 0 -4 -9 -11 -20 -14
-11 -3 -20 -11 -20 -16 0 -11 33 -12 46 0 14 13 73 21 79 11 9 -15 25 -12 25
5 0 8 5 15 10 15 6 0 9 3 8 8 -1 4 1 22 5 40 7 32 27 45 27 17 0 -8 9 -23 19
-32 11 -9 17 -21 14 -26 -3 -5 -10 -3 -15 4 -7 11 -8 9 -6 -6 4 -24 17 -26 31
-3 8 12 5 24 -14 50 -14 18 -42 61 -63 96 -39 64 -46 72 -46 49z"/>
<path d="M12625 6680 c-3 -5 -1 -10 4 -10 6 0 11 5 11 10 0 6 -2 10 -4 10 -3
0 -8 -4 -11 -10z"/>
<path d="M3900 6671 c0 -5 -11 -22 -24 -37 -52 -61 -157 -216 -151 -222 4 -4
11 0 15 8 27 43 28 44 44 31 9 -8 16 -9 16 -3 0 6 -6 12 -12 15 -10 3 -8 10 5
23 16 17 17 17 17 1 0 -9 5 -17 10 -17 6 0 10 5 10 10 0 6 9 10 21 10 13 0 20
6 18 18 -3 33 1 53 10 47 5 -3 12 3 14 12 4 17 5 17 6 1 1 -17 16 -23 53 -20
9 1 19 -5 22 -14 3 -8 2 -13 -3 -10 -5 3 -8 -5 -7 -19 1 -26 16 -36 16 -10 0
18 12 19 28 3 23 -23 12 3 -22 52 -19 28 -43 68 -52 90 -16 37 -34 53 -34 31z
m1 -48 c-12 -20 -14 -14 -5 12 4 9 9 14 11 11 3 -2 0 -13 -6 -23z m43 -53 c-6
-5 -24 21 -24 34 0 6 6 1 14 -10 8 -10 12 -21 10 -24z"/>
<path d="M12330 6655 c0 -8 2 -15 4 -15 2 0 11 -3 20 -6 12 -4 16 0 16 15 0
14 -6 21 -20 21 -11 0 -20 -7 -20 -15z"/>
<path d="M14632 6640 c0 -14 2 -19 5 -12 2 6 2 18 0 25 -3 6 -5 1 -5 -13z"/>
<path d="M4501 6564 c0 -11 3 -14 6 -6 3 7 2 16 -1 19 -3 4 -6 -2 -5 -13z"/>
<path d="M12267 6543 c-4 -3 -7 -11 -7 -17 0 -6 5 -5 12 2 6 6 9 14 7 17 -3 3
-9 2 -12 -2z"/>
<path d="M13340 6530 c0 -5 5 -10 10 -10 6 0 10 5 10 10 0 6 -4 10 -10 10 -5
0 -10 -4 -10 -10z"/>
<path d="M3900 6515 c0 -8 5 -15 10 -15 6 0 10 7 10 15 0 8 -4 15 -10 15 -5 0
-10 -7 -10 -15z"/>
<path d="M4891 6511 c-8 -5 -11 -16 -8 -25 10 -25 27 -19 27 9 0 28 0 28 -19
16z"/>
<path d="M13420 6482 c0 -14 28 -47 35 -41 2 3 -5 15 -15 29 -11 14 -20 19
-20 12z"/>
<path d="M12888 6473 c7 -3 16 -2 19 1 4 3 -2 6 -13 5 -11 0 -14 -3 -6 -6z"/>
<path d="M12920 6460 c0 -5 5 -10 11 -10 5 0 7 5 4 10 -3 6 -8 10 -11 10 -2 0
-4 -4 -4 -10z"/>
<path d="M13220 6450 c0 -5 5 -10 10 -10 6 0 10 5 10 10 0 6 -4 10 -10 10 -5
0 -10 -4 -10 -10z"/>
<path d="M13013 6443 c9 -2 25 -2 35 0 9 3 1 5 -18 5 -19 0 -27 -2 -17 -5z"/>
<path d="M13110 6420 c0 -5 5 -10 10 -10 6 0 10 5 10 10 0 6 -4 10 -10 10 -5
0 -10 -4 -10 -10z"/>
<path d="M3682 6362 l-23 -37 25 28 c14 15 26 32 26 38 0 15 -4 11 -28 -29z"/>
<path d="M13501 6375 c0 -5 6 -19 14 -29 8 -11 15 -15 15 -10 0 6 -7 19 -15
30 -8 10 -14 15 -14 9z"/>
<path d="M4871 6164 c-14 -49 -7 -56 9 -9 7 20 10 39 7 42 -3 3 -10 -12 -16
-33z"/>
<path d="M12348 6093 c5 -21 7 -23 10 -9 2 10 0 22 -6 28 -6 6 -7 0 -4 -19z"/>
<path d="M13700 6101 c0 -6 4 -13 10 -16 6 -3 7 1 4 9 -7 18 -14 21 -14 7z"/>
<path d="M3425 6002 c-69 -114 -67 -112 -62 -112 3 0 15 17 28 38 66 107 99
165 96 168 -2 2 -29 -40 -62 -94z"/>
<path d="M13729 6055 c14 -30 40 -61 41 -50 0 6 -12 24 -26 40 -14 17 -21 21
-15 10z"/>
<path d="M3335 5854 c-9 -14 -14 -28 -12 -31 3 -3 13 9 22 26 19 38 14 41 -10
5z"/>
<path d="M13850 5859 c0 -12 52 -100 57 -96 2 3 -9 27 -26 53 -17 27 -31 46
-31 43z"/>
<path d="M12460 5813 c0 -4 5 -15 10 -23 8 -13 10 -13 10 2 0 9 -4 20 -10 23
-5 3 -10 3 -10 -2z"/>
<path d="M3295 5780 c-9 -16 -13 -30 -11 -30 3 0 12 14 21 30 9 17 13 30 11
30 -3 0 -12 -13 -21 -30z"/>
<path d="M13920 5734 c0 -5 7 -18 15 -28 8 -11 15 -16 15 -10 0 5 -7 18 -15
28 -8 11 -15 16 -15 10z"/>
<path d="M12510 5715 c0 -5 5 -17 10 -25 5 -8 10 -10 10 -5 0 6 -5 17 -10 25
-5 8 -10 11 -10 5z"/>
<path d="M14040 5537 c0 -4 13 -28 30 -55 16 -26 30 -44 30 -39 0 4 -13 28
-30 55 -16 26 -30 44 -30 39z"/>
<path d="M10383 3090 c-58 -12 -103 -35 -151 -76 l-41 -35 -46 36 c-131 99
-333 78 -457 -48 -69 -72 -151 -187 -105 -148 8 6 18 7 23 3 5 -4 6 -3 2 3
-16 19 -7 24 30 19 74 -10 234 -15 632 -19 223 -2 515 -7 650 -11 135 -5 278
-8 318 -8 54 1 72 -3 72 -13 0 -17 34 -17 49 0 27 33 -123 198 -227 249 -50
25 -80 32 -143 36 -91 5 -138 -9 -220 -64 l-50 -35 -20 25 c-11 14 -48 39 -82
56 -69 34 -161 46 -234 30z"/>
<path d="M6622 3071 c-30 -10 -70 -34 -91 -55 -39 -39 -56 -44 -64 -22 -3 7
-32 29 -64 47 -56 33 -61 34 -168 34 -102 0 -114 -2 -165 -29 -89 -46 -179
-148 -239 -268 -28 -57 -51 -110 -51 -118 1 -8 8 -1 17 15 18 34 47 65 62 65
5 0 11 6 14 13 3 9 7 9 20 -1 13 -11 17 -10 25 4 5 9 22 18 38 20 59 5 127 15
147 23 12 4 96 6 187 5 91 -1 179 1 195 6 40 12 185 20 320 19 233 -2 403 -6
480 -14 102 -9 225 -12 225 -4 0 8 92 3 113 -6 25 -11 22 -2 -29 75 -86 130
-182 190 -320 198 -73 4 -88 2 -140 -22 -33 -15 -71 -38 -85 -52 l-26 -25 -49
41 c-27 22 -71 46 -100 55 -71 21 -186 19 -252 -4z"/>
<path d="M7590 2796 c0 -2 7 -7 16 -10 8 -3 12 -2 9 4 -6 10 -25 14 -25 6z"/>
<path d="M11356 2774 c-5 -14 -4 -15 9 -4 17 14 19 20 6 20 -5 0 -12 -7 -15
-16z"/>
<path d="M11381 2748 c-1 -16 4 -28 9 -28 12 0 12 8 0 35 -8 18 -9 17 -9 -7z"/>
</g>
</svg>
