<?xml version="1.0" standalone="no"?>
<!DOCTYPE svg PUBLIC "-//W3C//DTD SVG 20010904//EN"
 "http://www.w3.org/TR/2001/REC-SVG-20010904/DTD/svg10.dtd">
<svg version="1.0" xmlns="http://www.w3.org/2000/svg"
 viewBox="0 0 2660.000000 1576.000000"
 preserveAspectRatio="none">

<g transform="translate(0.000000,1576.000000) scale(0.100000,-0.100000)"
fill="currentColor" stroke="none">
<path d="M6220 13359 c-647 -27 -1377 -175 -1953 -396 -240 -92 -592 -270
-782 -396 -55 -37 -263 -193 -275 -206 -3 -3 -49 -46 -104 -96 -95 -87 -240
-256 -324 -380 -55 -81 -145 -263 -176 -355 -42 -127 -76 -316 -76 -427 0
-243 77 -485 227 -716 64 -98 267 -299 373 -369 197 -129 422 -218 685 -270
94 -18 151 -22 398 -24 l287 -3 0 -1863 c0 -1214 -4 -1902 -11 -1978 -15 -168
-41 -268 -105 -398 -45 -94 -67 -126 -127 -186 -80 -81 -137 -113 -264 -148
-79 -22 -81 -24 -85 -56 -2 -18 -2 -35 1 -37 8 -8 2700 -5 2704 3 3 4 2 22 0
40 -5 29 -10 33 -62 48 -118 33 -200 82 -287 168 -65 66 -90 100 -123 168 -56
115 -88 247 -100 415 -15 188 -15 2703 -1 2703 25 0 133 -64 225 -133 255
-190 518 -488 1052 -1192 330 -436 450 -596 537 -719 239 -338 571 -736 764
-915 391 -365 767 -562 1222 -643 117 -20 489 -17 615 6 553 101 999 483 1212
1040 19 50 43 127 53 171 24 100 37 255 22 255 -6 0 -33 -29 -61 -64 -103
-129 -202 -204 -360 -272 -116 -51 -201 -65 -376 -66 -216 0 -395 40 -620 137
-396 171 -698 443 -1266 1137 -501 612 -801 907 -1074 1054 -68 37 -65 40 53
48 353 26 822 178 1147 370 513 305 856 770 990 1340 50 215 60 307 60 561 0
272 -14 372 -86 626 -81 288 -205 533 -388 769 -82 105 -302 333 -396 409
-398 323 -925 565 -1540 705 -330 76 -665 119 -1050 136 -240 11 -281 11 -555
-1z m470 -990 c222 -19 532 -79 706 -135 253 -83 499 -206 677 -340 495 -371
733 -980 652 -1669 -51 -431 -187 -751 -429 -1012 -211 -226 -486 -364 -840
-420 -136 -21 -589 -24 -816 -5 -134 12 -394 46 -546 73 l-64 11 -1 1482 c-2
1483 -3 1633 -13 1643 -8 8 -172 -24 -273 -53 -312 -90 -655 -312 -911 -590
-115 -124 -230 -308 -303 -484 -23 -54 -23 -64 -29 -514 l-5 -460 -30 -8 c-55
-17 -310 -22 -408 -8 -224 31 -397 124 -531 287 -144 173 -212 417 -186 659
66 618 736 1155 1777 1424 115 30 465 91 637 110 252 29 659 33 936 9z"/>
<path d="M21497 13050 c-95 -25 -181 -70 -258 -134 -123 -101 -196 -214 -286
-440 -103 -261 -146 -325 -239 -352 -80 -23 -125 -12 -434 106 -428 163 -890
240 -1370 227 -540 -14 -1015 -130 -1471 -358 -616 -307 -1137 -838 -1428
-1452 -140 -294 -226 -577 -278 -917 -26 -164 -25 -718 0 -900 54 -386 140
-661 308 -991 142 -278 304 -502 524 -725 255 -257 453 -398 816 -580 512
-256 1118 -353 1712 -273 708 94 1325 402 1823 910 168 173 245 267 373 459
148 222 252 436 326 671 127 404 154 608 162 1232 l5 437 -1018 -2 -1019 -3 0
-24 c0 -22 11 -30 85 -61 299 -127 434 -322 505 -725 57 -328 59 -802 5 -1075
-96 -475 -378 -750 -860 -836 -132 -24 -426 -24 -577 -1 -463 72 -849 286
-1140 631 -280 333 -440 703 -514 1191 -30 202 -38 596 -15 800 40 347 105
577 245 856 85 168 121 226 219 349 267 334 617 550 997 616 115 20 412 14
525 -11 463 -102 807 -382 1035 -843 47 -94 85 -208 85 -251 0 -15 3 -31 7
-34 15 -15 163 93 277 202 232 223 411 528 490 834 14 54 28 102 31 107 3 4
33 0 66 -10 153 -47 411 -51 559 -10 41 12 121 43 176 70 179 87 316 240 381
425 25 73 28 92 27 220 0 125 -3 149 -27 220 -64 192 -192 333 -367 405 -146
60 -330 76 -463 40z"/>
<path d="M11722 12701 c-8 -5 -12 -22 -10 -46 3 -38 4 -39 62 -52 84 -19 232
-92 289 -143 60 -53 123 -145 150 -219 17 -45 21 -80 21 -181 0 -115 -2 -133
-33 -224 -41 -123 -106 -272 -256 -586 -126 -264 -276 -579 -332 -700 -19 -41
-84 -176 -143 -300 -352 -733 -738 -1543 -820 -1720 -32 -69 -104 -222 -160
-340 -399 -842 -427 -913 -418 -1049 13 -175 176 -314 452 -386 180 -46 584
-95 790 -95 l93 0 6 58 c2 31 22 102 43 157 98 256 322 488 651 674 194 110
606 292 1173 520 80 32 169 66 198 76 52 17 53 18 47 48 -13 61 -68 178 -109
235 -60 81 -126 134 -237 192 -172 89 -273 118 -643 185 -273 50 -437 98 -525
155 -137 89 -219 207 -262 380 -19 74 -21 103 -16 230 4 119 11 165 36 255 33
124 121 384 174 520 20 50 72 182 116 295 70 182 129 322 347 833 32 75 62
136 67 134 5 -1 49 -106 98 -232 50 -127 116 -297 149 -380 32 -82 95 -249
138 -370 44 -121 128 -348 187 -505 105 -281 188 -510 306 -845 33 -93 105
-291 161 -440 55 -148 118 -319 140 -380 65 -178 284 -753 363 -954 40 -102
111 -283 158 -401 365 -926 652 -1411 1141 -1930 252 -268 617 -568 951 -783
294 -188 762 -412 1116 -532 865 -294 1648 -373 2442 -245 325 52 711 184 972
332 429 243 738 585 873 969 57 162 77 276 76 449 0 139 -3 164 -27 243 -103
337 -336 529 -733 602 -118 22 -440 31 -586 16 -279 -28 -654 -115 -910 -211
-180 -68 -378 -151 -733 -310 -396 -177 -618 -261 -840 -320 -206 -55 -283
-64 -510 -65 -184 0 -223 3 -314 23 -217 49 -416 143 -588 280 -229 182 -386
378 -546 682 -128 243 -205 434 -472 1170 -59 162 -124 342 -145 400 -22 58
-71 195 -110 305 -39 110 -118 331 -175 490 -166 466 -212 597 -290 825 -40
118 -128 368 -195 555 -67 187 -161 455 -210 595 -48 140 -102 291 -118 335
-17 44 -124 337 -237 650 -113 314 -248 685 -299 825 l-93 255 -939 2 c-516 2
-945 -1 -952 -6z m8153 -6936 c216 -46 383 -205 440 -420 109 -408 -160 -957
-610 -1247 -170 -110 -388 -194 -579 -223 -154 -24 -438 -17 -551 14 -258 69
-447 252 -496 476 -43 201 16 445 155 639 235 330 773 660 1226 755 118 24
314 27 415 6z"/>
</g>
</svg>
