<?xml version="1.0" standalone="no"?>
<!DOCTYPE svg PUBLIC "-//W3C//DTD SVG 20010904//EN"
 "http://www.w3.org/TR/2001/REC-SVG-20010904/DTD/svg10.dtd">
<svg version="1.0" xmlns="http://www.w3.org/2000/svg"
 viewBox="0 0 2659.000000 1576.000000"
 preserveAspectRatio="none">

<g transform="translate(0.000000,1576.000000) scale(0.100000,-0.100000)"
fill="currentColor" stroke="none">
<path d="M6285 13363 c-544 -31 -869 -75 -1305 -177 -281 -66 -614 -171 -805
-256 -22 -10 -85 -36 -139 -59 -294 -125 -601 -310 -833 -503 -245 -203 -441
-454 -552 -706 -42 -96 -94 -268 -112 -376 -17 -103 -7 -359 20 -468 56 -233
185 -464 348 -619 151 -144 278 -230 463 -311 151 -67 268 -105 405 -132 156
-32 224 -38 466 -39 l252 -2 -1 -1870 c-1 -1028 -4 -1910 -8 -1960 -7 -101
-41 -255 -78 -344 -48 -118 -153 -253 -243 -312 -33 -22 -129 -61 -193 -80
-61 -17 -72 -27 -68 -63 l3 -31 1250 -3 c688 -2 1296 0 1353 3 l103 7 -3 36
c-3 35 -5 37 -68 57 -131 41 -180 71 -270 163 -133 137 -199 283 -231 514 -14
93 -24 2747 -12 2759 15 15 119 -44 238 -133 208 -155 576 -555 852 -924 12
-16 75 -99 139 -184 242 -320 294 -390 435 -580 80 -107 162 -220 184 -250 36
-52 175 -237 202 -270 7 -8 34 -43 60 -77 359 -465 703 -772 1072 -957 216
-108 297 -136 571 -200 155 -36 387 -45 578 -21 259 32 422 85 620 202 152 88
250 172 378 318 200 230 369 609 390 873 8 97 -5 108 -51 42 -16 -23 -70 -81
-122 -130 -79 -76 -110 -98 -196 -139 -149 -72 -238 -91 -416 -91 -369 1 -669
108 -1045 375 -144 101 -456 414 -643 642 -540 662 -863 1010 -1107 1194 -65
49 -178 121 -211 133 -34 12 1 24 99 31 239 19 612 113 831 209 558 245 915
582 1152 1091 249 534 267 1253 46 1805 -119 297 -286 550 -520 789 -79 81
-160 158 -180 173 -21 15 -69 53 -108 83 -84 66 -199 146 -235 162 -8 4 -37
21 -65 39 -161 102 -589 284 -830 352 -22 7 -78 23 -125 36 -47 14 -121 32
-165 42 -44 9 -98 20 -120 25 -383 85 -1045 136 -1450 112z m185 -983 c463
-23 857 -98 1125 -215 17 -8 54 -23 84 -35 66 -26 255 -129 334 -182 187 -126
360 -310 478 -508 173 -290 246 -604 236 -1014 -11 -471 -120 -809 -362 -1126
-168 -219 -435 -384 -759 -469 -165 -43 -306 -54 -641 -48 -170 3 -341 10
-380 16 -38 5 -115 15 -170 21 -55 5 -162 20 -238 32 -127 20 -140 24 -148 46
-5 13 -9 673 -9 1563 l0 1539 -22 0 c-57 0 -301 -59 -373 -89 -11 -5 -47 -19
-80 -32 -51 -19 -161 -75 -230 -116 -11 -7 -27 -15 -35 -19 -34 -16 -159 -105
-225 -159 -259 -212 -434 -443 -531 -703 -23 -60 -24 -74 -24 -311 0 -136 -3
-343 -7 -459 l-6 -210 -61 -11 c-251 -41 -494 -9 -685 90 -87 46 -214 172
-275 273 -108 181 -149 411 -112 636 77 464 461 859 1116 1147 108 47 242 98
295 113 17 5 46 13 65 19 19 5 89 25 155 44 381 109 715 156 1250 175 22 1
128 -3 235 -8z"/>
<path d="M21575 13074 c-219 -30 -383 -133 -512 -324 -40 -59 -83 -153 -123
-270 -67 -197 -130 -309 -190 -340 -67 -34 -187 -22 -310 32 -14 6 -35 15 -47
19 -13 5 -33 13 -45 18 -63 25 -192 69 -323 110 -466 146 -1103 182 -1640 92
-690 -115 -1246 -391 -1737 -860 -391 -374 -709 -915 -849 -1448 -33 -124 -38
-153 -70 -363 -27 -177 -37 -581 -19 -771 39 -426 129 -749 313 -1123 76 -155
239 -408 342 -531 220 -262 504 -505 765 -654 143 -82 442 -223 538 -254 220
-72 464 -126 672 -148 164 -17 528 -23 638 -10 346 41 501 74 767 163 101 34
352 147 445 202 33 20 63 36 65 36 7 0 171 106 239 155 199 143 452 372 576
520 214 257 323 434 481 780 41 92 119 371 148 535 60 336 73 526 69 995 l-3
340 -1017 3 -1018 2 0 -29 c0 -34 19 -49 109 -82 36 -12 96 -44 135 -69 226
-147 337 -415 377 -905 16 -203 7 -702 -16 -820 -39 -207 -121 -385 -240 -524
-38 -44 -200 -158 -275 -194 -306 -146 -701 -165 -1165 -57 -102 24 -291 97
-366 141 -28 16 -52 29 -55 29 -2 0 -44 25 -92 56 -287 186 -558 511 -707 847
-14 32 -25 60 -25 63 0 3 -6 20 -14 37 -22 49 -55 143 -67 190 -95 377 -124
618 -116 957 11 427 88 759 259 1105 137 278 382 561 623 720 253 167 470 240
750 252 526 22 977 -204 1267 -636 114 -170 197 -353 213 -468 4 -29 11 -53
16 -53 37 0 275 192 373 301 42 46 186 250 186 263 0 2 15 30 33 63 27 49 68
139 108 241 5 12 13 32 19 45 9 21 33 94 61 185 7 24 16 45 20 48 5 2 39 -3
76 -12 104 -26 389 -31 490 -9 169 37 315 106 414 196 40 37 119 135 119 148
0 6 3 11 8 11 11 0 60 109 77 171 25 91 30 242 11 342 -9 49 -21 96 -25 105
-57 122 -83 164 -130 214 -90 98 -198 164 -323 197 -73 20 -225 33 -283 25z"/>
<path d="M11702 12663 l3 -47 65 -13 c127 -26 268 -114 356 -224 62 -76 111
-254 98 -354 -14 -118 -74 -298 -174 -525 -42 -96 -63 -141 -205 -435 -96
-199 -165 -345 -165 -349 0 -2 -33 -73 -74 -157 -92 -193 -149 -313 -193 -409
-50 -109 -90 -192 -193 -405 -51 -104 -109 -226 -130 -270 -21 -44 -88 -183
-149 -309 -61 -126 -111 -230 -111 -232 0 -2 -28 -61 -61 -131 -34 -70 -102
-216 -151 -323 -49 -107 -111 -240 -138 -295 -27 -55 -80 -167 -118 -250 -38
-82 -81 -175 -95 -205 -85 -182 -183 -434 -198 -506 -39 -189 111 -368 379
-453 73 -24 233 -56 377 -76 130 -18 431 -38 515 -33 l64 3 9 45 c36 196 107
337 256 509 66 76 207 196 305 259 85 55 300 166 421 217 50 20 114 48 143 61
29 13 55 24 57 24 3 0 27 9 53 21 26 12 56 25 67 30 11 4 108 43 215 85 107
42 218 86 245 98 43 20 249 100 327 128 24 9 26 14 22 42 -11 57 -46 148 -81
207 -72 124 -202 222 -398 299 -84 33 -333 90 -570 130 -178 29 -340 74 -424
117 -218 110 -335 347 -317 643 6 121 59 364 96 445 5 11 16 43 24 70 8 28 24
75 36 105 12 30 32 87 46 125 27 74 80 217 94 250 5 11 31 79 59 150 51 135
202 507 226 560 8 17 42 93 75 170 34 77 65 144 70 149 5 5 18 -13 30 -40 11
-27 25 -58 30 -69 11 -24 79 -201 166 -430 36 -93 71 -186 79 -205 8 -19 37
-98 65 -175 28 -77 62 -169 76 -205 14 -36 32 -85 40 -110 8 -25 19 -54 24
-65 17 -38 69 -181 145 -395 107 -300 122 -340 201 -550 25 -69 68 -186 94
-260 27 -74 60 -166 75 -205 34 -90 90 -242 119 -325 13 -36 66 -177 119 -315
52 -137 114 -302 137 -365 40 -110 123 -333 140 -375 5 -11 31 -78 59 -150 27
-71 73 -186 101 -255 28 -69 64 -159 80 -201 15 -41 37 -95 48 -120 11 -24 37
-82 57 -129 21 -47 47 -105 57 -130 69 -156 238 -474 330 -620 19 -30 47 -77
64 -104 42 -72 231 -323 339 -451 178 -210 441 -462 654 -626 46 -35 105 -80
130 -99 127 -98 375 -259 531 -344 216 -119 562 -282 710 -335 19 -7 44 -17
55 -22 104 -46 539 -175 770 -228 50 -12 108 -26 130 -31 95 -23 327 -59 565
-86 204 -24 689 -24 890 -1 301 36 459 67 677 133 282 85 589 233 783 378 377
280 615 644 689 1056 45 247 1 525 -108 684 -112 165 -239 262 -416 321 -168
56 -236 66 -472 72 -315 8 -523 -16 -848 -97 -204 -51 -367 -104 -580 -190
-11 -4 -51 -20 -90 -35 -38 -16 -108 -46 -153 -67 -46 -21 -85 -38 -87 -38 -2
0 -42 -18 -89 -40 -47 -22 -87 -40 -90 -40 -2 0 -48 -21 -103 -46 -182 -85
-453 -190 -618 -240 -44 -13 -93 -28 -110 -34 -149 -47 -376 -79 -560 -80
-271 0 -490 54 -711 175 -56 31 -202 132 -224 155 -3 3 -36 32 -74 65 -108 94
-238 255 -342 424 -87 141 -130 222 -197 371 -13 30 -33 75 -45 100 -55 123
-157 388 -232 605 -22 66 -49 143 -60 170 -10 28 -30 82 -43 120 -14 39 -50
139 -81 222 -31 84 -56 157 -56 163 0 6 -4 18 -10 28 -5 9 -33 85 -61 167 -28
83 -55 155 -59 160 -4 6 -10 19 -13 30 -9 34 -163 474 -202 580 -21 55 -45
125 -55 155 -10 30 -44 127 -75 215 -31 88 -69 198 -85 245 -51 153 -91 263
-121 335 -4 11 -28 79 -53 150 -55 160 -157 451 -184 525 -51 139 -115 321
-137 385 -13 39 -40 115 -60 170 -41 112 -81 224 -130 365 -18 52 -52 145 -75
205 -23 61 -49 130 -57 155 -24 73 -83 243 -92 265 -19 44 -41 105 -74 200
-60 172 -105 297 -141 390 l-34 90 -957 3 -956 2 3 -47z m8177 -6899 c112 -27
205 -78 280 -152 121 -122 164 -239 165 -452 1 -142 -5 -178 -55 -341 -71
-231 -222 -446 -435 -620 -128 -104 -323 -214 -444 -248 -25 -7 -56 -17 -70
-21 -238 -75 -646 -80 -815 -10 -11 5 -42 16 -69 26 -112 41 -233 144 -291
248 -116 211 -111 454 15 708 177 357 726 724 1265 847 123 28 124 28 264 30
85 1 146 -4 190 -15z"/>
<path d="M4685 2998 c-3 -7 -4 -267 -3 -578 l3 -565 90 0 90 0 4 120 4 120 53
48 53 49 48 -63 c26 -35 84 -108 129 -164 l80 -100 102 -3 c56 -1 102 0 102 4
0 6 -52 75 -83 109 -10 11 -51 63 -90 115 -39 52 -93 122 -120 155 -26 33 -46
65 -45 72 3 11 54 66 242 261 l70 72 -105 0 -106 0 -44 -43 c-24 -23 -98 -100
-163 -170 -65 -70 -121 -125 -123 -123 -3 2 -5 153 -4 335 0 182 -2 337 -5
346 -8 20 -172 22 -179 3z"/>
<path d="M13060 2430 l0 -581 88 3 87 3 0 575 0 575 -87 3 -88 3 0 -581z"/>
<path d="M16998 2893 c-1 -65 -3 -158 -3 -208 -1 -49 -2 -93 -3 -97 -1 -4 -25
8 -53 27 -66 43 -132 59 -223 52 -307 -22 -452 -443 -241 -702 18 -23 62 -59
96 -80 63 -39 66 -40 159 -40 105 0 145 14 226 81 23 18 44 30 48 27 3 -4 6
-26 6 -50 l0 -43 90 0 90 0 0 575 0 575 -95 0 -95 0 -2 -117z m-153 -384 c143
-40 206 -226 129 -384 -90 -186 -347 -152 -404 55 -23 82 -2 196 46 253 63 75
140 100 229 76z"/>
<path d="M7015 2671 c-39 -10 -69 -26 -128 -68 -26 -18 -52 -31 -57 -28 -6 4
-10 22 -10 41 l0 35 -87 -3 -88 -3 -3 -392 -3 -393 58 -1 c32 0 74 -1 93 -2
l35 -2 5 265 c3 146 10 274 14 285 31 69 75 100 157 111 41 5 57 2 101 -20 94
-47 92 -40 98 -361 l5 -280 75 -3 c41 -2 85 0 98 3 l24 6 -4 292 c-3 289 -4
293 -29 347 -31 65 -86 122 -147 151 -49 22 -158 33 -207 20z"/>
<path d="M9005 2673 c-134 -19 -261 -106 -319 -218 -58 -114 -61 -274 -7 -387
48 -101 111 -156 236 -208 17 -7 67 -15 111 -17 256 -17 454 172 454 433 0
128 -37 215 -126 293 -97 85 -221 122 -349 104z m147 -172 c52 -23 101 -72
122 -123 10 -23 16 -68 16 -117 0 -66 -4 -87 -28 -131 -85 -165 -320 -168
-404 -7 -31 60 -37 185 -11 248 26 64 56 98 111 125 59 29 134 31 194 5z"/>
<path d="M14744 2658 c-190 -62 -305 -262 -274 -477 13 -94 42 -152 108 -220
80 -81 173 -120 287 -121 104 0 231 46 298 109 51 47 51 53 -9 100 l-54 42
-46 -35 c-61 -47 -102 -59 -189 -54 -63 3 -80 8 -116 34 -43 31 -101 124 -96
154 2 13 45 16 297 20 l295 5 -1 82 c-1 117 -32 192 -109 269 -105 105 -249
139 -391 92z m204 -148 c54 -29 81 -54 97 -94 32 -77 36 -75 -157 -78 -227 -4
-228 -4 -228 32 0 40 56 110 110 138 56 28 127 29 178 2z"/>
<path d="M18670 2664 c-239 -66 -361 -324 -269 -570 30 -81 112 -162 194 -194
74 -28 196 -38 251 -20 42 14 122 64 141 89 9 12 15 13 23 5 9 -9 9 -29 1 -80
-14 -89 -52 -152 -111 -182 -40 -21 -55 -23 -140 -19 -79 3 -105 9 -153 32
-33 16 -67 39 -76 51 l-17 22 -62 -63 -62 -62 39 -27 c22 -15 81 -46 133 -69
93 -41 93 -41 218 -41 119 0 128 1 190 30 74 35 114 70 158 134 63 94 65 115
70 549 2 250 0 396 -6 400 -6 3 -49 5 -96 3 l-86 -3 0 -40 c0 -45 -5 -48 -31
-16 -10 13 -44 35 -76 50 -75 33 -161 41 -233 21z m191 -155 c52 -16 108 -64
130 -113 26 -56 26 -186 0 -241 -23 -49 -58 -87 -102 -111 -43 -23 -149 -23
-200 -1 -51 23 -103 87 -124 153 -15 48 -16 63 -5 119 20 105 69 162 170 198
27 10 92 7 131 -4z"/>
<path d="M20693 2660 c-187 -49 -303 -206 -303 -408 0 -43 7 -99 15 -126 67
-221 292 -332 526 -262 70 21 106 42 157 93 l47 45 -50 44 c-27 24 -54 44 -60
44 -7 0 -22 -12 -36 -26 -42 -45 -86 -59 -184 -59 -84 0 -93 2 -133 30 -43 31
-92 112 -92 154 0 20 5 21 293 23 l292 3 3 69 c4 82 -17 159 -64 232 -47 75
-117 123 -219 150 -66 18 -105 17 -192 -6z m204 -163 c45 -29 83 -89 83 -132
l0 -25 -201 0 -201 0 7 33 c11 48 54 103 105 132 61 35 145 32 207 -8z"/>
<path d="M10603 2633 c10 -36 107 -309 116 -328 5 -11 15 -38 22 -60 7 -22 29
-87 49 -145 21 -58 48 -138 61 -179 l24 -74 84 6 c46 4 85 8 88 10 4 5 138
392 160 465 9 29 21 51 27 49 5 -2 27 -59 48 -128 20 -68 58 -186 85 -261 l47
-138 57 0 c109 0 111 1 141 93 14 45 41 120 58 167 18 47 36 96 40 110 5 14
38 112 74 218 36 107 66 198 66 203 0 6 -37 9 -85 7 l-86 -3 -43 -130 c-59
-177 -102 -311 -116 -364 -7 -26 -15 -40 -20 -35 -9 9 -64 167 -130 369 -12
39 -30 90 -40 115 l-16 45 -64 3 c-82 4 -110 -3 -110 -27 0 -25 -148 -471
-170 -510 -4 -8 -15 14 -30 60 -13 41 -31 99 -41 129 -9 30 -29 96 -44 145
-15 50 -35 115 -44 145 l-18 55 -98 3 c-90 3 -97 1 -92 -15z"/>
</g>
</svg>
