<?xml version="1.0" standalone="no"?>
<!DOCTYPE svg PUBLIC "-//W3C//DTD SVG 20010904//EN"
 "http://www.w3.org/TR/2001/REC-SVG-20010904/DTD/svg10.dtd">
<svg version="1.0" xmlns="http://www.w3.org/2000/svg"
 viewBox="0 0 3547.000000 1182.000000"
 preserveAspectRatio="none">

<g transform="translate(0.000000,1182.000000) scale(0.100000,-0.100000)"
fill="#000000" stroke="none">
<path d="M23630 10550 c-543 -32 -1048 -159 -1470 -369 -364 -181 -622 -371
-909 -667 -519 -535 -822 -1139 -980 -1954 -57 -297 -66 -405 -66 -845 0 -469
12 -583 101 -953 144 -604 499 -1220 947 -1646 101 -96 325 -274 435 -347 483
-320 1010 -484 1617 -506 409 -14 741 52 1060 211 240 120 447 291 611 506 38
50 72 90 76 90 15 0 9 -430 -7 -535 -32 -211 -97 -348 -230 -480 -49 -50 -105
-97 -122 -104 -49 -20 -41 -34 15 -27 26 3 81 8 122 11 250 21 673 154 1015
320 381 186 576 398 662 720 l26 100 8 1075 c5 644 13 1105 19 1149 19 139 80
229 192 283 45 22 92 32 245 52 163 21 205 30 298 65 329 124 495 361 520 741
l6 95 -41 -76 c-103 -192 -272 -328 -466 -375 -62 -16 -214 -18 -1534 -24
-1306 -6 -1474 -9 -1550 -23 -235 -46 -397 -130 -531 -275 -181 -196 -261
-452 -239 -758 5 -65 9 -121 10 -124 0 -3 20 31 43 75 135 258 412 467 722
545 158 40 291 52 560 48 l230 -3 3 -745 c3 -795 -1 -901 -43 -1068 -59 -232
-236 -504 -409 -626 -134 -96 -306 -164 -471 -186 -377 -51 -764 49 -1125 288
-87 58 -151 112 -261 222 -158 157 -216 230 -340 427 -241 382 -386 832 -465
1443 -25 193 -30 826 -10 1090 65 830 313 1586 676 2058 98 127 321 351 435
436 101 75 327 191 450 230 161 51 235 61 455 61 218 0 266 -7 435 -60 455
-145 780 -512 860 -972 40 -227 4 -438 -96 -564 -16 -20 -29 -39 -29 -41 0 -3
24 -1 54 4 43 8 84 5 198 -14 119 -19 180 -23 363 -23 194 0 230 3 301 22 206
55 336 145 408 283 60 114 71 256 31 405 -20 77 -109 257 -176 359 -147 222
-450 472 -758 627 -412 207 -875 319 -1443 349 -211 11 -247 11 -438 0z"/>
<path d="M8545 10503 c-226 -21 -533 -107 -739 -207 -257 -125 -499 -318 -691
-551 -109 -133 -174 -233 -251 -390 -235 -482 -229 -916 15 -1164 116 -118
256 -175 426 -175 170 1 290 50 411 169 161 158 214 377 136 563 -15 37 -69
130 -119 207 -163 252 -199 348 -190 504 3 58 14 119 26 155 74 209 244 373
486 468 95 37 237 49 326 28 214 -50 375 -229 450 -500 l24 -85 3 -2455 c3
-2467 -2 -2896 -32 -3060 -62 -332 -232 -563 -491 -666 -78 -31 -80 -32 -74
-38 2 -2 177 0 389 4 451 10 522 18 795 92 414 112 689 309 864 619 46 82 108
263 138 407 l27 127 4 988 3 987 22 0 c48 0 190 -30 276 -59 183 -62 310 -140
447 -278 196 -197 369 -483 746 -1238 202 -402 504 -937 656 -1160 244 -358
540 -668 827 -866 436 -302 816 -419 1318 -407 213 6 357 30 525 90 387 136
749 468 910 833 39 90 126 360 120 375 -2 5 -43 -27 -93 -71 -193 -172 -390
-250 -675 -265 -271 -15 -515 50 -775 207 -151 91 -223 148 -361 288 -172 175
-324 369 -543 696 -433 646 -646 923 -898 1166 -217 209 -413 353 -643 473
-119 62 -365 162 -495 202 l-60 18 110 8 c452 31 644 61 970 149 211 58 258
74 425 149 322 144 604 355 781 583 346 447 462 974 344 1563 -108 536 -469
994 -992 1257 -246 125 -604 223 -931 258 -153 16 -609 7 -721 -15 -407 -77
-697 -224 -972 -493 -79 -77 -176 -184 -219 -242 -88 -118 -189 -304 -229
-422 -28 -83 -41 -92 -41 -28 0 159 -100 429 -230 618 -125 182 -265 302 -480
409 -265 132 -505 184 -843 180 -95 -1 -190 -3 -212 -5z m3496 -523 c41 -12
115 -42 164 -67 260 -129 443 -348 563 -673 80 -215 112 -418 112 -708 0 -214
-10 -322 -41 -477 -76 -366 -289 -746 -528 -939 -206 -166 -419 -263 -686
-312 -142 -26 -594 -27 -815 -1 -85 10 -193 21 -240 25 l-85 7 0 885 c0 807 2
895 18 998 44 271 123 512 222 671 222 358 577 592 940 619 126 10 289 -3 376
-28z"/>
<path d="M17015 10489 c-172 -12 -482 -64 -685 -115 -244 -61 -418 -108 -425
-116 -3 -3 25 -11 62 -17 427 -74 687 -269 749 -561 33 -154 8 -266 -144 -656
-39 -99 -113 -295 -166 -435 -52 -140 -140 -373 -196 -519 -56 -146 -118 -308
-137 -360 -19 -52 -63 -171 -98 -265 -35 -93 -111 -300 -170 -460 -58 -159
-126 -344 -151 -410 -25 -66 -100 -264 -166 -440 -66 -176 -125 -325 -131
-331 -7 -7 -43 -29 -82 -50 -188 -101 -291 -177 -438 -322 -126 -124 -235
-269 -298 -397 -67 -137 -84 -205 -83 -340 0 -101 3 -117 34 -195 28 -69 46
-97 95 -146 68 -69 115 -96 196 -114 238 -53 421 90 614 478 52 104 252 592
306 746 12 33 22 43 69 63 30 14 108 40 175 59 349 101 736 117 1112 48 368
-67 703 -244 974 -514 202 -201 305 -364 490 -775 270 -604 482 -819 932 -949
182 -53 313 -69 552 -70 246 0 381 14 665 68 96 18 266 51 377 72 112 22 203
42 203 46 0 3 -17 12 -37 19 -21 6 -81 33 -134 59 -357 175 -654 496 -855 925
-119 253 -553 1513 -708 2056 -23 80 -95 312 -221 714 -94 299 -142 456 -189
615 -24 85 -58 196 -75 245 -16 50 -64 200 -106 335 -246 783 -383 1185 -457
1338 -116 239 -284 415 -504 527 -252 129 -537 172 -949 144z m31 -1421 c11
-35 77 -232 146 -438 69 -206 163 -492 208 -635 45 -143 119 -377 164 -520 89
-277 202 -635 311 -985 37 -118 105 -328 151 -467 46 -138 84 -254 84 -257 0
-13 -19 -4 -83 44 -205 149 -534 268 -887 321 -205 31 -576 34 -740 6 -178
-30 -341 -78 -529 -155 -11 -4 -13 -1 -7 14 29 69 211 555 276 734 43 118 117
321 165 450 165 449 207 566 275 760 37 107 97 272 132 365 35 94 118 317 184
497 65 180 121 328 125 328 3 0 14 -28 25 -62z m-1827 -3768 c-62 -199 -218
-528 -283 -596 -71 -74 -141 -69 -172 12 -44 117 18 265 181 430 93 95 153
141 250 193 22 11 40 21 41 21 1 0 -6 -27 -17 -60z"/>
<path d="M8781 1753 c0 -5 -2 -300 -5 -656 l-6 -648 98 3 97 3 3 136 3 137 75
71 75 72 22 -28 c43 -52 234 -308 262 -351 l28 -42 118 0 c66 0 119 3 118 8 0
4 -36 52 -79 107 -44 55 -132 169 -196 253 -64 84 -123 159 -130 167 -8 7 -14
16 -14 19 0 3 26 29 57 58 32 29 120 115 198 190 l140 138 -125 0 -125 -1
-105 -102 c-58 -56 -151 -150 -207 -208 -57 -58 -104 -103 -104 -100 -1 3 0
180 1 394 l2 387 -101 0 c-56 0 -101 -3 -100 -7z"/>
<path d="M17629 1753 c0 -4 -1 -299 -2 -655 l-2 -648 103 0 102 0 -2 653 -3
652 -97 3 c-54 1 -98 -1 -99 -5z"/>
<path d="M21778 1588 c0 -95 0 -196 1 -224 2 -29 -1 -54 -6 -57 -5 -3 -33 10
-63 29 -114 72 -200 91 -318 70 -92 -16 -143 -42 -219 -110 -115 -104 -163
-217 -163 -387 0 -210 94 -367 270 -451 149 -72 359 -36 459 78 17 19 33 34
36 34 3 0 5 -29 5 -65 l0 -66 98 3 97 3 3 635 c1 349 0 645 -3 658 -5 21 -10
22 -100 22 l-95 0 -2 -172z m-162 -357 c56 -25 111 -76 136 -125 31 -60 38
-256 13 -323 -56 -150 -182 -224 -328 -193 -75 15 -131 59 -173 134 -101 184
-47 413 117 495 75 38 168 42 235 12z"/>
<path d="M11232 1396 c-64 -24 -78 -33 -144 -95 l-38 -35 0 44 c0 92 0 91
-109 88 l-96 -3 0 -470 1 -470 97 -3 c53 -1 97 -1 97 0 0 2 3 138 6 303 7 346
8 350 98 433 106 97 249 97 330 1 61 -72 60 -66 64 -416 l4 -323 99 0 99 0 0
304 c0 167 -4 325 -9 352 -26 138 -88 229 -187 279 -50 25 -73 29 -154 32 -81
3 -104 0 -158 -21z"/>
<path d="M13340 1406 c-157 -44 -302 -177 -346 -320 -9 -28 -18 -92 -21 -142
-5 -75 -2 -104 15 -161 38 -125 133 -243 239 -296 266 -135 565 -35 695 231
34 71 41 96 45 165 16 252 -115 443 -351 516 -78 24 -204 27 -276 7z m190
-157 c31 -7 72 -27 109 -54 47 -35 66 -57 93 -112 30 -62 33 -76 33 -158 0
-82 -3 -97 -33 -157 -56 -114 -140 -170 -257 -172 -81 -1 -122 13 -184 62
-124 100 -149 351 -48 483 42 55 73 77 138 100 63 22 81 23 149 8z"/>
<path d="M19313 1405 c-82 -22 -133 -53 -198 -119 -244 -247 -192 -656 103
-805 167 -84 363 -81 504 8 55 35 128 99 128 113 0 14 -21 33 -78 68 l-51 31
-47 -36 c-92 -70 -119 -80 -224 -80 -110 0 -139 13 -213 95 -40 45 -56 78 -72
158 l-7 32 370 0 c287 0 371 3 375 13 7 20 -3 128 -18 189 -54 214 -226 349
-444 347 -42 0 -100 -7 -128 -14z m240 -167 c57 -25 117 -90 141 -153 30 -78
40 -75 -259 -75 l-265 0 0 23 c1 59 64 157 125 193 81 47 167 51 258 12z"/>
<path d="M23546 1404 c-216 -52 -356 -238 -356 -474 0 -204 89 -353 261 -439
91 -46 162 -58 250 -42 82 14 138 43 204 103 l55 50 0 -84 c0 -197 -79 -295
-247 -306 -141 -9 -262 33 -329 114 l-35 44 -69 -51 c-39 -28 -70 -57 -70 -64
0 -37 163 -148 267 -181 78 -24 265 -30 343 -10 173 44 276 145 322 314 20 72
21 109 26 545 l4 467 -106 0 -106 0 0 -55 c0 -30 -3 -55 -6 -55 -3 0 -22 16
-42 35 -45 43 -103 71 -185 90 -75 18 -104 18 -181 -1z m250 -179 c63 -28 126
-84 148 -129 12 -26 16 -65 16 -163 0 -113 -3 -134 -24 -179 -41 -89 -135
-144 -246 -144 -183 0 -293 120 -293 320 -1 47 5 103 13 125 19 58 66 122 111
152 85 56 178 62 275 18z"/>
<path d="M25731 1405 c-158 -35 -300 -180 -346 -356 -23 -86 -19 -221 9 -302
48 -135 117 -212 241 -272 152 -73 311 -73 455 0 54 27 170 113 170 125 0 9
-107 86 -135 96 -9 4 -23 -4 -35 -19 -34 -43 -154 -97 -215 -97 -150 0 -276
104 -300 248 l-7 42 371 0 371 0 0 66 c0 185 -91 353 -231 424 -113 58 -222
72 -348 45z m237 -171 c28 -14 66 -43 83 -65 34 -43 73 -135 64 -150 -4 -5
-117 -9 -271 -9 l-264 0 0 23 c0 34 44 118 81 156 50 51 102 71 185 71 56 0
81 -5 122 -26z"/>
<path d="M16318 1393 l-47 -4 -29 -77 c-26 -70 -57 -160 -161 -475 -20 -59
-40 -109 -45 -110 -5 -1 -58 148 -119 331 l-110 332 -86 0 -87 0 -15 -47
c-124 -379 -218 -647 -225 -640 -2 2 -24 75 -49 163 -24 87 -71 240 -103 339
l-59 180 -102 3 c-63 2 -101 -1 -101 -7 0 -6 29 -93 64 -193 35 -101 89 -255
119 -343 30 -88 75 -214 99 -280 l45 -120 80 -3 c56 -2 83 1 90 10 11 14 17
31 142 398 47 141 91 257 96 259 6 1 31 -64 57 -146 25 -81 75 -232 110 -336
l63 -187 85 2 85 3 26 65 c35 87 141 378 232 635 41 116 78 218 82 228 5 13 2
17 -13 17 -11 0 -32 2 -48 4 -16 1 -50 1 -76 -1z"/>
</g>
</svg>
